<?xml version="1.0" standalone="no"?>
<!DOCTYPE svg PUBLIC "-//W3C//DTD SVG 20010904//EN"
 "http://www.w3.org/TR/2001/REC-SVG-20010904/DTD/svg10.dtd">
<svg version="1.0" xmlns="http://www.w3.org/2000/svg"
 width="1080.000000pt" height="1920.000000pt" viewBox="0 0 1080.000000 1920.000000"
 preserveAspectRatio="xMidYMid meet">

<g transform="translate(0.000000,1920.000000) scale(0.100000,-0.100000)"
fill="#000000" stroke="none">
<path d="M1510 16283 c-131 -68 -197 -145 -226 -268 -15 -67 -19 -175 -5 -175
5 0 28 7 52 16 24 8 84 24 134 35 60 13 93 25 99 37 6 9 11 62 13 117 2 55 10
120 18 145 8 25 17 64 21 88 6 38 4 42 -14 42 -11 0 -52 -17 -92 -37z"/>
<path d="M9478 16178 c-2 -6 -1 -34 3 -62 4 -28 8 -86 8 -128 1 -68 4 -79 23
-92 12 -9 33 -16 47 -16 24 0 24 0 18 83 -8 93 -19 134 -54 190 -24 38 -38 46
-45 25z"/>
<path d="M1205 15759 c-137 -64 -189 -100 -214 -153 -24 -52 -40 -139 -35
-188 4 -32 1 -38 -26 -49 -37 -17 -44 -35 -25 -62 30 -42 7 -267 -31 -298 -16
-13 -19 -39 -4 -39 17 0 39 44 55 112 19 82 34 253 23 271 -4 9 -2 14 7 14 8
0 12 -4 10 -8 -3 -4 2 -10 10 -13 9 -3 25 -27 36 -53 18 -41 20 -61 15 -138
-3 -49 -8 -99 -10 -110 -2 -12 -7 -48 -11 -80 -4 -33 -11 -70 -16 -82 -5 -13
-7 -23 -6 -23 2 0 58 20 125 45 67 25 128 45 135 45 8 0 26 9 40 20 21 17 27
32 33 88 4 37 7 70 6 75 -1 4 4 42 11 85 7 42 12 95 12 117 -1 22 -3 55 -4 73
0 20 -10 42 -25 57 -22 22 -24 30 -20 97 5 87 23 199 35 214 6 7 4 16 -4 22
-9 8 -41 -2 -122 -39z m52 -288 c44 -58 7 -294 -55 -349 -19 -17 -33 -21 -54
-17 -17 4 -28 2 -28 -4 0 -6 -11 -11 -24 -11 -44 0 -42 43 10 255 18 72 31
105 47 118 46 38 79 40 104 8z"/>
<path d="M2727 15698 c-13 -56 -18 -137 -9 -153 7 -13 11 8 14 76 5 98 4 115
-5 77z"/>
<path d="M9755 15678 c27 -131 32 -147 64 -187 l35 -44 32 36 c29 31 32 39 24
67 -11 38 -58 99 -104 134 -47 35 -60 34 -51 -6z"/>
<path d="M8422 15575 c0 -16 2 -22 5 -12 2 9 2 23 0 30 -3 6 -5 -1 -5 -18z"/>
<path d="M2062 15565 c0 -16 2 -22 5 -12 2 9 2 23 0 30 -3 6 -5 -1 -5 -18z"/>
<path d="M1532 15553 c-37 -71 -60 -195 -53 -285 1 -18 27 -48 41 -48 14 0 21
32 9 46 -15 18 -13 134 4 224 16 78 15 95 -1 63z"/>
<path d="M2050 15469 c0 -30 5 -61 10 -69 8 -10 9 5 4 50 -8 82 -14 90 -14 19z"/>
<path d="M4910 15328 c-74 -3 -144 -7 -155 -8 -11 0 -72 -1 -135 -1 -63 -1
-131 -2 -150 -4 -19 -2 -102 -6 -185 -9 -82 -4 -208 -10 -280 -16 -71 -5 -175
-12 -230 -16 -55 -3 -131 -10 -170 -15 -38 -5 -95 -11 -125 -12 -30 -2 -84 -6
-120 -10 -255 -27 -533 -52 -577 -52 -29 0 -53 -2 -53 -5 0 -3 -19 -4 -42 -2
-28 2 -38 0 -30 -6 10 -6 1 -12 -30 -20 -57 -14 -231 -48 -343 -68 -177 -31
-232 -43 -355 -74 -69 -17 -143 -36 -165 -41 -163 -38 -371 -119 -424 -166
l-36 -31 23 -25 23 -24 37 18 c59 31 67 26 70 -36 2 -37 -2 -62 -12 -76 -17
-25 -11 -88 11 -106 9 -7 12 -19 8 -33 -4 -11 -2 -26 3 -33 10 -13 12 -27 31
-257 7 -80 15 -152 18 -160 3 -8 7 -22 9 -30 11 -57 15 -80 18 -120 2 -25 7
-62 11 -82 7 -35 9 -37 34 -32 14 4 31 11 38 16 7 6 15 3 22 -9 11 -20 9 -21
26 32 7 22 -5 44 -20 38 -9 -3 -17 5 -21 24 -4 15 -10 33 -14 38 -15 20 -31
159 -24 216 3 31 15 70 25 86 l19 28 0 -28 c0 -23 3 -27 19 -22 29 9 44 -17
33 -62 -11 -43 -9 -213 2 -232 5 -7 14 -10 21 -7 19 7 26 -4 15 -25 -7 -13 -6
-20 4 -26 11 -6 12 -25 7 -88 -4 -44 -13 -90 -19 -102 -7 -12 -12 -31 -12 -42
0 -12 -4 -21 -10 -21 -5 0 -10 -5 -10 -10 0 -6 8 -10 17 -8 10 2 19 -5 22 -19
4 -13 10 -19 17 -15 21 14 84 112 84 131 0 11 5 23 11 27 13 7 4 81 -12 100
-6 8 -5 14 6 18 11 4 15 1 13 -11 -6 -34 19 -22 34 16 13 33 23 42 56 52 65
19 88 -5 45 -49 -18 -18 -29 -85 -14 -90 18 -6 13 -32 -7 -32 -27 0 -62 -37
-62 -66 0 -13 -7 -27 -15 -30 -8 -3 -26 -26 -40 -50 -14 -24 -38 -52 -53 -61
-15 -9 -29 -18 -30 -19 -2 -1 -1 -13 3 -25 7 -22 8 -22 20 7 9 20 14 23 14 11
1 -10 -4 -28 -10 -39 -15 -28 2 -44 32 -27 18 9 24 9 27 0 3 -9 7 -9 18 0 19
16 18 29 -3 29 -13 0 -7 9 20 34 41 36 77 115 77 166 0 37 21 40 44 6 14 -22
14 -28 1 -53 -17 -32 -19 -63 -5 -63 6 0 10 -4 10 -10 0 -5 -10 -9 -23 -7 -20
2 -22 -2 -23 -48 0 -28 -4 -57 -8 -65 -4 -8 -1 -7 7 3 18 22 23 22 30 -3 3
-13 14 -20 30 -20 14 0 32 -6 40 -14 10 -11 17 -12 25 -4 8 8 14 3 23 -18 6
-16 15 -37 20 -46 5 -10 9 -38 9 -62 0 -34 6 -52 25 -72 30 -32 26 -39 -19
-36 -51 4 -58 -25 -43 -183 13 -130 17 -146 43 -155 27 -11 30 -20 12 -38 -9
-9 -9 -15 0 -24 9 -9 16 -7 32 7 24 21 25 38 6 54 -8 7 -17 30 -21 52 -4 21
-11 39 -16 39 -5 0 -9 7 -9 16 0 10 6 13 19 9 26 -8 31 19 16 79 -11 42 -10
53 4 77 13 23 21 27 41 22 14 -3 26 -7 28 -8 2 -2 4 -41 4 -87 0 -56 -5 -96
-15 -119 -18 -39 -37 -127 -31 -143 5 -16 -23 -49 -35 -42 -14 9 -51 -30 -51
-54 0 -11 4 -20 8 -20 14 0 32 23 32 41 0 10 11 20 25 23 18 5 27 15 32 37 3
17 10 27 17 24 6 -3 19 -8 29 -11 34 -12 13 -57 -72 -154 -24 -29 -29 -31 -24
-12 3 13 1 22 -6 22 -15 0 -51 -37 -51 -53 0 -7 -14 -26 -31 -43 -17 -16 -28
-36 -26 -45 3 -9 1 -23 -4 -30 -9 -15 6 -47 32 -70 12 -10 15 -20 8 -30 -5 -8
-9 -26 -9 -42 0 -21 7 -30 27 -38 23 -8 30 -6 51 16 24 27 52 30 59 8 3 -7 -7
-17 -21 -23 -18 -7 -26 -17 -26 -34 0 -18 4 -24 15 -20 17 7 21 -21 5 -31 -5
-3 -10 -24 -10 -46 0 -29 4 -39 16 -39 12 0 15 -6 11 -21 -4 -15 -1 -19 11
-17 10 2 16 11 14 21 -3 16 1 17 47 8 2 -1 -3 -8 -10 -17 -8 -9 -12 -28 -11
-41 6 -41 -17 -83 -44 -83 -13 0 -24 -4 -24 -10 0 -5 -9 -19 -19 -29 -11 -11
-24 -29 -31 -40 -14 -27 -30 -27 -23 -1 3 11 9 20 14 20 12 0 35 58 44 109 6
39 6 42 -12 32 -10 -5 -25 -12 -34 -14 -21 -7 -32 -62 -17 -86 9 -15 8 -22 -5
-36 -9 -9 -17 -19 -17 -23 1 -28 52 -55 90 -47 22 5 31 1 44 -17 20 -29 20
-38 0 -38 -9 0 -32 -17 -50 -37 -31 -34 -37 -36 -55 -25 -12 8 -23 11 -25 9
-10 -9 18 -152 32 -169 9 -9 14 -24 10 -33 -3 -8 -1 -27 5 -41 7 -19 6 -33 -3
-48 -14 -23 -12 -76 3 -76 5 0 8 8 7 18 -3 34 2 53 12 47 15 -9 12 -61 -5 -75
-12 -10 -18 -10 -30 0 -8 7 -15 19 -15 27 0 8 -5 11 -10 8 -23 -14 1 -86 42
-129 30 -31 37 -80 17 -118 -9 -17 -13 -18 -21 -7 -8 11 -9 10 -5 -3 7 -20
-20 -44 -45 -40 -10 2 -18 -3 -19 -10 -2 -32 3 -111 10 -150 0 -5 8 -8 16 -8
24 0 21 -80 -3 -87 -18 -4 -49 -43 -35 -43 5 0 23 -9 42 -21 27 -17 32 -23 20
-31 -11 -7 -11 -11 -1 -15 18 -7 15 -20 -7 -26 -14 -3 -17 -11 -14 -32 5 -25
3 -27 -23 -23 l-29 3 3 -65 c3 -80 18 -177 32 -214 13 -35 13 -112 0 -137 -6
-11 -7 -25 -3 -32 4 -6 8 -14 9 -17 8 -41 18 -58 31 -53 11 4 14 2 11 -8 -3
-8 -10 -14 -16 -14 -19 0 -52 -63 -59 -112 -5 -41 -4 -46 10 -40 22 8 22 -12
0 -29 -15 -10 -16 -16 -7 -32 7 -10 8 -25 4 -33 -4 -8 -7 -29 -6 -46 2 -18 3
-45 4 -60 4 -49 17 -15 32 84 4 28 11 57 15 62 11 19 25 12 25 -14 0 -14 5
-25 10 -25 18 0 11 -43 -11 -66 -23 -24 -20 -62 3 -48 9 5 9 3 -1 -9 -7 -9
-19 -17 -26 -17 -12 0 -31 -67 -28 -97 0 -7 -4 -13 -9 -13 -6 0 -8 -13 -4 -32
14 -74 15 -88 7 -88 -5 0 -8 -11 -8 -25 0 -14 4 -25 9 -25 7 0 6 -5 -1 -13 -7
-10 -8 -37 -1 -93 13 -116 21 -144 37 -144 12 0 14 -11 9 -56 -6 -60 9 -109
25 -83 7 12 9 11 9 -1 0 -9 -5 -21 -10 -26 -6 -6 -13 -41 -17 -77 -5 -62 -4
-67 12 -61 17 7 17 6 0 -19 -18 -28 -12 -52 11 -43 19 7 18 -18 -2 -35 -20
-17 -14 -90 9 -113 12 -12 13 -23 7 -46 -7 -26 -6 -30 11 -30 12 0 19 -7 19
-20 0 -11 -5 -20 -11 -20 -8 0 -9 -17 -5 -54 6 -45 4 -56 -10 -64 -11 -6 -13
-11 -5 -16 14 -9 14 -46 0 -46 -7 0 -9 -10 -4 -28 4 -15 9 -63 11 -107 5 -101
12 -172 24 -254 5 -36 7 -68 4 -72 -2 -5 2 -24 10 -43 9 -21 11 -38 5 -41 -5
-4 -9 -24 -9 -45 0 -30 6 -43 26 -59 26 -20 26 -22 9 -41 -14 -16 -16 -28 -9
-67 4 -26 9 -77 10 -113 2 -36 4 -78 5 -95 2 -38 27 -308 40 -445 9 -87 18
-218 20 -290 0 -8 -3 -27 -7 -42 -7 -30 19 -83 36 -73 14 8 12 -9 -1 -22 -7
-7 -9 -29 -6 -55 4 -23 9 -86 12 -138 3 -52 8 -129 12 -170 4 -41 6 -81 4 -87
-1 -7 2 -13 6 -13 4 0 9 -21 10 -47 7 -152 13 -213 26 -258 8 -27 13 -63 11
-78 -2 -15 1 -25 5 -22 5 2 7 -29 5 -71 -2 -42 1 -115 7 -162 14 -106 16 -130
18 -183 l1 -42 25 27 c34 37 51 33 26 -7 -45 -74 -36 -200 20 -253 24 -23 31
-25 44 -14 12 10 15 10 15 -3 0 -22 -48 -31 -74 -14 -20 14 -21 13 -20 -12 1
-14 3 -43 3 -63 1 -20 7 -43 15 -51 9 -9 11 -19 5 -28 -19 -30 -1 -210 21
-217 13 -5 13 -42 0 -42 -14 0 -13 -83 2 -98 7 -7 12 -56 14 -129 1 -65 7
-129 12 -144 6 -14 8 -37 5 -53 -3 -15 0 -39 8 -52 11 -22 11 -27 -1 -34 -8
-6 -10 -10 -5 -10 6 0 10 -24 9 -58 -1 -31 3 -91 8 -132 6 -41 12 -88 13 -105
9 -88 37 -227 55 -274 28 -72 59 -131 68 -131 16 0 95 -84 108 -115 16 -39 73
-105 90 -105 7 0 19 -9 26 -19 8 -11 29 -23 48 -28 30 -8 35 -14 35 -39 1 -27
3 -29 40 -29 44 -1 68 -11 60 -26 -4 -5 -15 -9 -26 -9 -21 0 -26 -15 -8 -26 7
-4 16 0 21 9 13 24 35 11 108 -62 60 -60 89 -84 115 -94 6 -2 35 -12 65 -22
30 -10 61 -20 69 -23 9 -3 12 -1 7 6 -5 8 0 12 13 12 10 0 21 -5 23 -11 2 -6
39 -23 83 -38 75 -26 81 -30 101 -72 11 -24 27 -64 35 -88 12 -37 20 -46 56
-60 23 -9 53 -27 67 -40 23 -22 31 -23 87 -17 49 5 70 2 106 -14 25 -11 56
-20 69 -20 15 0 24 -6 24 -15 0 -8 9 -15 20 -15 24 0 52 -16 94 -53 17 -15 35
-27 41 -27 5 -1 -1 -7 -15 -15 -27 -16 -72 -20 -84 -7 -16 15 -55 8 -60 -11
-3 -12 -10 -16 -18 -12 -7 3 3 -7 22 -24 22 -21 41 -29 53 -25 14 4 18 1 15
-13 -2 -14 13 -26 62 -50 36 -17 90 -39 120 -48 91 -26 124 -75 51 -75 -45 0
-74 -22 -69 -54 3 -20 8 -21 78 -17 41 2 93 9 116 16 23 7 47 9 53 5 7 -4 330
-5 719 -2 606 4 709 6 724 19 18 16 38 10 38 -12 0 -12 41 -14 233 -15 127 -1
271 -4 320 -8 93 -8 111 -1 50 19 -21 6 -41 13 -45 15 -14 8 19 54 45 64 16 5
36 19 46 31 11 14 32 23 64 26 35 4 47 9 43 19 -5 13 6 19 28 15 12 -3 56 28
56 39 0 6 -16 10 -36 10 -40 0 -38 15 4 33 l27 11 -27 4 c-35 4 -36 19 -3 32
54 21 19 50 -61 50 -41 0 -65 5 -73 14 -10 12 -6 13 27 9 32 -4 42 -1 58 18
10 13 28 26 39 27 10 2 33 15 49 29 28 23 36 25 93 20 35 -4 63 -3 63 1 0 5
15 8 33 9 76 2 73 1 51 17 -21 16 -22 14 31 31 8 2 17 0 20 -5 10 -16 53 -11
67 8 7 9 22 19 33 20 11 2 35 13 54 25 19 11 31 15 27 8 -10 -15 20 -8 66 15
15 8 35 14 46 14 10 0 29 11 41 24 12 13 38 32 57 42 18 10 34 22 34 27 0 4
19 17 43 27 23 10 50 28 59 39 10 11 30 23 45 27 44 11 165 75 203 108 19 17
57 55 85 84 31 32 58 52 72 52 12 0 25 5 28 10 4 6 11 8 16 5 5 -3 6 1 3 9 -3
9 -1 16 4 16 6 0 14 9 17 20 3 11 31 50 61 86 30 37 54 73 54 80 0 8 11 24 25
36 28 24 45 75 43 129 -1 25 6 44 21 60 30 32 74 126 67 144 -3 8 4 40 15 72
22 63 36 253 18 253 -14 0 -11 38 4 43 9 3 11 31 9 107 -1 61 2 108 8 115 6 7
17 75 25 152 8 76 20 172 26 213 5 41 8 89 6 105 -2 17 0 41 5 55 5 13 9 67 9
118 0 62 7 113 18 151 20 62 29 140 36 306 3 61 9 125 14 143 6 19 6 44 1 63
-10 33 -4 96 10 114 14 18 19 59 26 193 6 125 6 132 -11 125 -15 -5 -17 -3
-11 13 5 10 13 37 18 59 5 22 13 44 19 49 14 15 11 52 -6 66 -20 16 -19 38 3
80 11 20 19 58 20 89 0 30 6 57 11 61 6 3 16 58 21 121 6 63 14 155 19 206 8
88 6 378 -4 393 -6 9 13 78 32 114 14 27 14 31 -2 42 -10 7 -19 23 -21 36 -2
13 -7 36 -10 51 -5 23 -3 29 14 34 12 3 22 16 25 31 3 15 10 45 16 66 5 22 7
53 4 68 l-6 29 -24 -23 c-22 -21 -23 -21 -17 -3 4 11 10 25 14 30 14 19 59
180 70 245 17 108 13 174 -15 240 -25 60 -34 150 -15 150 6 0 10 8 10 19 0 12
-7 18 -17 17 -24 -1 -30 55 -9 73 10 8 13 22 10 41 -4 15 -1 31 5 34 16 10 13
26 -4 26 -8 0 -15 8 -15 17 0 9 -5 31 -11 48 -10 28 -9 37 15 77 14 24 26 58
26 73 0 16 6 36 14 44 16 19 10 81 -8 81 -12 0 -17 43 -19 150 -1 72 13 181
29 228 10 31 11 49 4 62 -7 14 -5 32 8 67 25 64 34 111 22 118 -6 4 -8 10 -5
15 3 4 -2 13 -10 20 -8 7 -12 16 -9 21 3 5 14 -1 24 -13 17 -21 19 -22 25 -5
4 10 5 32 1 49 -3 17 -1 37 5 44 15 19 4 44 -20 44 -20 0 -31 18 -31 52 0 11
-9 33 -20 48 -14 20 -19 37 -14 55 10 38 22 39 22 1 0 -19 4 -41 9 -50 8 -14
11 -14 31 0 20 14 22 24 22 104 0 134 -18 237 -46 267 -21 23 -24 36 -24 103
0 154 23 214 81 215 29 0 48 29 33 53 -6 9 -17 17 -25 17 -8 0 -16 14 -19 30
-3 18 -14 34 -28 40 -25 11 -37 54 -30 112 3 21 0 45 -5 54 -7 11 -7 32 -1 60
8 38 13 44 34 41 13 -1 27 3 32 10 6 10 10 10 18 -2 7 -11 9 -5 7 20 -2 22
-13 46 -29 63 -21 23 -26 37 -26 81 1 44 5 54 22 62 16 7 20 17 19 39 -2 16
-9 34 -16 40 -21 16 -52 74 -44 82 5 4 16 2 27 -5 16 -10 20 -8 28 16 l10 27
1 -27 c1 -15 10 -42 21 -60 11 -18 20 -46 20 -63 1 -29 1 -29 15 -11 19 24 19
50 1 101 -8 22 -17 91 -21 153 -5 75 -12 118 -21 127 -9 9 -14 36 -14 75 0 34
-5 70 -11 81 -9 17 -7 20 7 17 15 -3 17 9 18 107 1 61 -1 126 -5 145 -16 81
-36 137 -57 158 -22 22 -30 66 -13 76 5 3 14 0 20 -8 18 -22 53 -127 62 -186
11 -74 19 -122 25 -140 5 -13 6 -13 14 0 12 18 3 102 -15 150 -7 20 -16 58
-20 85 -3 28 -15 77 -25 110 -11 33 -22 77 -25 98 -5 31 -10 37 -30 37 -15 0
-29 9 -36 23 -7 12 -12 23 -11 25 1 1 0 1 -2 0 -2 -2 -13 6 -25 16 -14 13 -21
31 -21 55 l1 36 27 -30 c26 -29 55 -35 76 -15 4 5 24 6 44 3 32 -6 35 -4 27
13 -4 10 -8 29 -8 42 1 12 -3 22 -8 22 -5 0 -9 -6 -9 -14 0 -16 -37 -28 -46
-15 -3 5 0 9 5 9 16 0 61 42 61 57 0 7 -4 13 -10 13 -5 0 -10 7 -10 15 0 9 -6
12 -15 9 -8 -4 -23 -3 -32 1 -15 5 -12 9 15 20 35 15 43 41 15 48 -16 4 -16 5
1 6 15 1 17 6 12 35 -6 32 7 57 28 53 13 -3 35 112 29 151 -3 17 -11 32 -17
32 -7 0 -16 15 -21 33 -11 36 -51 51 -60 23 -14 -45 -17 -51 -22 -38 -3 6 -11
12 -19 12 -18 0 -18 29 -1 55 23 34 28 55 11 48 -12 -4 -14 0 -8 23 4 16 14
42 23 58 48 86 60 114 60 143 1 17 6 35 11 38 15 9 12 58 -5 81 -18 24 -19 71
-1 81 8 4 16 17 18 28 3 14 11 19 26 18 19 -2 22 2 22 32 0 19 -5 35 -10 35
-6 0 -15 12 -20 26 -14 37 -18 197 -6 209 6 6 32 23 57 37 51 30 89 33 89 7 0
-20 -20 -29 -66 -29 -22 0 -37 -6 -41 -15 -6 -18 26 -47 45 -40 6 3 19 8 27
11 10 4 15 0 15 -10 0 -13 6 -15 27 -10 25 7 26 6 20 -25 -4 -18 -2 -31 3 -31
6 0 10 -4 10 -10 0 -5 -6 -7 -13 -4 -8 3 -20 -2 -27 -11 -11 -13 -11 -21 3
-49 8 -19 14 -42 13 -52 -2 -11 7 -24 22 -31 31 -17 32 -17 32 6 0 31 15 33
41 5 12 -13 28 -23 35 -20 7 3 15 -9 19 -30 6 -36 33 -44 27 -8 -2 10 -5 36
-6 57 -2 20 -7 37 -12 38 -34 2 -57 62 -33 86 15 15 1 56 -17 49 -30 -11 -41
4 -38 52 1 26 3 52 5 57 1 6 0 17 -4 25 -13 35 -14 100 -2 117 11 15 15 15 29
4 14 -12 16 -11 16 8 0 11 -5 21 -11 21 -8 0 -8 4 0 13 8 10 7 21 -2 40 -12
27 -27 36 -27 17 0 -7 -13 -8 -37 -4 -21 4 -47 9 -58 10 -40 3 -62 16 -79 45
-9 16 -15 33 -12 37 3 5 -8 24 -24 43 -31 37 -43 82 -15 59 8 -7 15 -20 15
-29 0 -9 13 -28 30 -43 31 -27 50 -26 25 3 -9 9 -16 36 -17 60 0 26 -13 68
-29 103 -16 33 -29 65 -29 71 0 7 -9 15 -21 18 -12 3 -18 10 -14 17 7 11 -32
49 -52 50 -7 0 -13 6 -13 14 0 7 -13 16 -29 19 -23 5 -28 10 -24 30 6 29 38
50 64 42 14 -5 19 -16 19 -45 0 -32 3 -37 18 -33 12 3 22 -4 31 -20 16 -31 68
-70 81 -62 17 11 11 42 -10 48 -20 5 -26 30 -14 61 7 18 39 22 49 6 3 -5 12
-10 18 -10 8 1 7 5 -3 13 -20 16 -14 54 13 88 12 14 27 35 33 45 9 15 9 6 3
-36 -5 -30 -7 -65 -4 -77 3 -15 -2 -29 -16 -42 -20 -18 -21 -27 -16 -81 4 -34
13 -74 21 -88 22 -43 66 -142 66 -148 0 -3 -9 -2 -20 1 -28 9 -25 -2 9 -36 28
-28 48 -39 36 -20 -3 5 4 13 16 16 27 9 41 -11 35 -46 -7 -39 10 -99 33 -115
21 -15 27 -36 36 -151 4 -42 2 -73 -3 -73 -5 0 -7 11 -4 25 2 15 0 25 -7 25
-6 0 -11 -8 -11 -17 0 -29 20 -93 29 -93 18 0 55 462 41 510 -5 18 -7 37 -3
43 3 5 7 49 9 97 1 49 7 96 12 106 11 22 26 145 23 190 -1 18 2 35 8 38 5 4 7
21 4 40 -6 36 11 56 30 37 14 -14 47 -14 47 0 0 23 -22 49 -41 49 -26 0 -40
39 -32 95 5 41 19 56 36 38 4 -3 28 -14 54 -23 27 -10 56 -21 66 -25 14 -6 17
-2 17 29 0 34 -3 36 -72 70 -40 19 -116 48 -168 64 -176 55 -190 54 -183 -11
3 -27 0 -49 -10 -61 -13 -18 -14 -18 -36 5 -20 21 -22 31 -16 80 l6 57 -53 12
c-29 6 -71 18 -93 27 -47 18 -185 43 -235 43 -20 0 -41 5 -47 11 -23 23 -500
96 -516 80 -15 -15 -53 -14 -69 3 -23 23 -55 27 -348 52 -41 3 -102 12 -135
19 -33 7 -120 14 -193 15 -73 0 -179 5 -235 10 -191 18 -212 19 -377 25 -91 3
-201 8 -245 10 -472 25 -1364 32 -1715 13z m-710 -108 c0 -5 -4 -10 -10 -10
-5 0 -10 5 -10 10 0 6 5 10 10 10 6 0 10 -4 10 -10z m1260 -8 c19 -9 25 -39
10 -57 -7 -9 -8 -15 -1 -19 6 -4 7 -14 4 -22 -3 -9 0 -20 8 -25 9 -6 10 -9 2
-9 -9 0 -11 -33 -7 -127 6 -165 13 -215 26 -207 6 4 5 -3 -2 -16 -7 -12 -9
-36 -6 -54 4 -18 3 -36 -1 -40 -11 -11 -12 -198 -1 -218 11 -22 0 -23 -26 -3
-28 21 -49 19 -76 -10 -20 -22 -22 -28 -11 -51 8 -19 17 -25 31 -21 11 3 23 1
26 -4 3 -5 13 -5 24 1 26 14 25 14 25 -28 0 -20 -8 -48 -18 -62 -21 -31 -21
-44 -1 -65 14 -13 19 -14 25 -3 6 9 9 7 9 -9 0 -13 -3 -23 -7 -23 -6 0 -8
-177 -2 -225 1 -5 -1 -39 -4 -75 -3 -35 -2 -69 3 -75 7 -8 1 -10 -20 -7 -17 2
-37 -1 -45 -8 -18 -15 -20 -49 -2 -52 6 0 17 -2 22 -3 6 -2 15 -3 21 -4 12 -1
14 -131 1 -131 -5 0 -6 -9 -2 -19 3 -11 1 -22 -4 -25 -6 -4 -6 -18 -1 -37 10
-34 4 -58 -19 -75 -13 -10 -14 -20 -5 -63 8 -41 8 -54 -3 -63 -7 -6 -11 -13
-9 -16 3 -2 0 -10 -7 -17 -19 -19 -57 -37 -57 -27 0 6 10 13 23 17 19 6 19 8
4 12 -10 3 -14 9 -10 16 5 9 3 9 -8 1 -15 -12 -65 7 -52 19 3 4 2 7 -4 7 -16
0 -10 60 7 70 13 9 13 10 0 10 -12 0 -15 16 -13 95 1 52 -2 97 -7 100 -5 3 -7
12 -4 20 4 8 11 12 16 9 7 -4 7 0 0 12 -5 11 -7 25 -5 32 3 6 0 12 -6 12 -6 0
-8 7 -5 15 4 8 2 15 -3 15 -10 0 -9 75 1 106 4 14 15 19 38 19 29 0 33 3 33
25 0 22 -4 25 -32 25 -28 0 -33 4 -39 30 -4 16 -8 39 -8 50 -1 11 -7 19 -13
18 -7 -2 -13 2 -13 7 0 6 4 10 10 10 16 0 35 43 21 48 -9 3 -9 7 0 19 10 11
10 16 0 23 -8 4 -9 10 -3 14 10 6 10 252 -1 262 -3 3 -3 29 -1 57 2 29 6 112
7 186 3 92 7 136 15 139 16 5 15 32 0 32 -8 0 -12 12 -12 30 1 17 2 74 3 128
1 83 4 94 15 80 7 -10 25 -18 40 -18 21 0 26 5 26 25 0 30 -20 41 -48 26 -18
-9 -19 -5 -21 89 -2 87 0 99 16 103 28 7 116 6 133 -1z m648 -23 c-3 -8 -7 -3
-11 10 -4 17 -3 21 5 13 5 -5 8 -16 6 -23z m-1361 -4 c9 -14 14 -43 13 -90 -1
-38 0 -72 1 -75 5 -13 9 -125 7 -225 -2 -149 1 -229 10 -233 4 -1 7 -66 6
-145 -1 -78 2 -152 7 -165 6 -14 5 -21 0 -17 -6 3 -9 -92 -9 -240 1 -135 5
-245 9 -245 5 0 8 -18 6 -39 -1 -21 -5 -37 -9 -35 -8 5 -3 -75 7 -98 4 -10 3
-18 -3 -18 -5 0 -9 -22 -8 -50 1 -27 0 -50 -3 -50 -3 0 -7 -41 -8 -90 -1 -63
2 -90 10 -91 7 0 1 -5 -13 -10 -20 -8 -22 -12 -10 -19 8 -5 11 -10 6 -10 -5 0
-3 -7 4 -15 7 -8 17 -12 24 -8 6 3 3 -2 -6 -13 -11 -13 -15 -28 -11 -43 4 -17
3 -22 -5 -17 -7 4 -12 1 -12 -8 0 -9 -8 -16 -17 -16 -10 0 -14 -4 -8 -8 18
-13 17 -42 -1 -42 -10 0 -14 -5 -10 -16 3 -8 2 -12 -4 -9 -6 3 -10 13 -10 21
0 8 -6 13 -12 12 -7 -2 -12 3 -10 10 1 6 -5 12 -14 12 -13 0 -14 3 -5 14 6 7
8 21 5 31 -5 13 -9 14 -16 3 -7 -9 -8 -8 -5 7 2 11 9 19 18 17 8 -2 11 0 7 4
-4 4 -3 13 3 21 9 10 8 13 -4 13 -16 0 -30 57 -15 66 5 3 5 10 2 16 -16 25
-26 199 -13 214 6 8 5 13 -4 17 -14 5 -15 75 -2 97 3 6 1 10 -5 10 -6 0 -9 4
-6 8 3 5 1 35 -3 68 -5 32 -6 61 -2 64 9 7 6 128 -3 168 -6 22 -5 32 3 32 7 0
9 5 4 13 -13 19 -20 186 -8 191 6 3 2 5 -8 5 -10 1 -15 6 -12 11 4 6 16 10 27
8 34 -5 45 44 18 82 -12 16 -24 30 -28 30 -4 0 -6 58 -6 130 1 71 -2 130 -7
130 -5 0 -9 7 -9 17 0 9 3 13 7 10 10 -10 33 13 33 33 0 10 -12 28 -26 39 -15
12 -21 21 -13 21 12 0 14 41 15 233 0 158 4 239 12 254 19 35 95 40 119 8z
m-1407 -14 c0 -6 -4 -13 -10 -16 -5 -3 -10 1 -10 9 0 9 5 16 10 16 6 0 10 -4
10 -9z m190 -5 c0 -2 -7 -7 -16 -10 -8 -3 -12 -2 -9 4 6 10 25 14 25 6z m2580
-12 c0 -8 -4 -12 -10 -9 -5 3 -10 1 -10 -5 0 -8 10 -10 28 -6 20 5 23 4 12 -4
-13 -9 -13 -11 0 -20 13 -9 13 -11 0 -20 -13 -8 -12 -10 3 -10 20 0 21 -4 6
-31 -6 -12 -7 -28 -3 -37 4 -9 6 -21 5 -26 -1 -5 1 -16 5 -25 3 -9 7 -53 8
-98 1 -46 5 -86 9 -89 4 -4 -1 -13 -11 -20 -15 -12 -15 -15 -2 -23 11 -7 15
-39 18 -133 2 -68 8 -126 14 -129 6 -4 -1 -17 -16 -32 -32 -32 -34 -71 -4 -91
21 -15 23 -40 17 -201 -1 -5 2 -72 4 -147 5 -115 3 -138 -9 -138 -16 0 -19
-37 -3 -42 11 -4 14 -221 4 -239 -4 -5 -8 -108 -10 -230 -3 -121 -7 -224 -9
-228 -3 -4 -6 -30 -7 -59 -2 -30 -8 -53 -15 -56 -10 -4 -10 -12 3 -36 13 -26
13 -36 3 -55 -7 -13 -9 -28 -5 -35 9 -15 -14 -70 -28 -67 -21 4 -40 28 -30 38
16 16 2 70 -21 79 -11 5 -16 9 -9 9 8 1 10 12 6 34 -11 68 -25 216 -27 302 -2
50 -6 105 -10 123 -6 24 -4 32 6 32 8 0 22 6 32 13 24 17 13 55 -17 62 -18 5
-22 13 -21 39 1 19 -2 56 -8 82 -5 27 -9 78 -8 114 1 36 2 115 2 175 1 65 6
113 12 118 8 5 7 9 -1 15 -11 7 -11 54 2 282 2 41 7 136 10 210 3 74 7 161 9
193 2 31 -1 60 -6 63 -5 3 -5 10 0 17 5 7 9 40 10 75 1 34 4 67 7 72 3 5 1 11
-4 14 -9 6 9 91 24 116 4 6 -1 22 -10 37 -9 14 -13 23 -8 20 6 -4 19 0 29 8
25 19 34 19 34 -1z m1350 1 c0 -8 -7 -15 -16 -15 -14 0 -14 3 -4 15 7 8 14 15
16 15 2 0 4 -7 4 -15z m-40 -4 c0 -17 -18 -21 -24 -6 -3 9 0 15 9 15 8 0 15
-4 15 -9z m-159 -18 c13 -17 13 -17 -6 -3 -11 8 -22 16 -24 17 -2 2 0 3 6 3 6
0 17 -8 24 -17z m-3771 3 c0 -3 -4 -8 -10 -11 -5 -3 -10 -1 -10 4 0 6 5 11 10
11 6 0 10 -2 10 -4z m120 -6 c0 -5 -4 -10 -10 -10 -5 0 -10 5 -10 10 0 6 5 10
10 10 6 0 10 -4 10 -10z m338 -21 c4 -24 3 -24 -12 -4 -19 24 -20 38 -3 33 6
-3 13 -15 15 -29z m3232 -19 c0 -10 9 -24 21 -30 17 -10 18 -14 7 -28 -11 -13
-11 -15 2 -8 8 4 5 -1 -7 -10 -25 -18 -30 -40 -10 -47 7 -3 5 -6 -5 -6 -19 -1
-26 -41 -8 -41 6 0 10 -4 10 -10 0 -5 -7 -10 -16 -10 -11 0 -14 -6 -8 -22 15
-50 16 -53 4 -35 -13 20 -32 14 -23 -8 3 -9 -1 -15 -9 -15 -7 0 -14 8 -15 18
-1 9 -6 53 -12 97 -10 89 -6 131 17 158 21 24 52 22 52 -3z m-137 -27 c-7 -3
-13 -13 -13 -23 0 -10 -4 -21 -9 -24 -14 -9 -21 20 -8 33 8 8 8 11 -1 11 -19
0 -14 18 6 23 21 4 43 -13 25 -20z m-3750 -19 c-4 -12 -8 -13 -14 -3 -9 15 -2
32 11 24 5 -3 6 -13 3 -21z m215 -10 c2 -1 -5 -5 -15 -8 -9 -4 -14 -4 -10 0 4
4 1 14 -6 23 -11 14 -10 15 8 1 11 -8 21 -15 23 -16z m86 4 c12 -17 13 -24 3
-30 -6 -4 -7 -8 -2 -8 6 0 3 -5 -5 -10 -11 -7 -11 -10 -2 -10 9 0 10 -5 3 -19
-6 -10 -8 -21 -4 -24 12 -13 13 -91 1 -99 -10 -6 -9 -8 2 -8 13 0 13 -1 0 -10
-12 -8 -12 -10 5 -10 17 0 17 -2 5 -10 -10 -6 -11 -10 -2 -10 12 0 13 -20 1
-30 -4 -3 -9 -15 -13 -27 -6 -18 -3 -23 10 -23 14 0 13 -3 -6 -20 -13 -11 -18
-20 -12 -20 6 0 9 -7 5 -16 -3 -9 0 -20 7 -24 11 -7 11 -16 -2 -49 -9 -23 -13
-39 -9 -36 5 2 6 -6 4 -19 -4 -17 -10 -22 -23 -19 -21 6 -32 -9 -24 -31 8 -20
34 -21 34 -1 0 8 5 15 11 15 6 0 8 -7 5 -16 -3 -9 -6 -36 -6 -60 0 -25 -4 -43
-9 -40 -13 8 -19 -62 -6 -75 7 -8 6 -13 -3 -16 -10 -4 -8 -9 5 -19 17 -13 17
-13 -3 -14 -32 0 -45 43 -49 161 -1 59 -6 112 -9 118 -4 5 -1 13 5 16 6 4 9
27 8 51 -2 24 0 46 4 50 3 4 0 19 -8 35 -10 18 -11 30 -5 34 6 3 10 17 10 31
0 15 6 24 16 24 11 0 14 5 9 18 -13 30 -11 56 4 81 15 24 15 24 -7 19 -28 -8
-28 -5 3 26 29 29 25 51 -13 65 -25 9 -26 9 -4 10 24 1 44 32 24 39 -15 5 -3
32 14 32 7 0 20 -10 28 -22z m101 -6 c1 -12 -2 -22 -5 -22 -4 0 -6 -29 -4 -63
2 -35 0 -85 -5 -110 -4 -26 -4 -44 0 -41 5 3 6 -8 3 -24 -4 -20 0 -39 12 -57
10 -15 13 -29 8 -33 -21 -15 -32 -58 -21 -78 6 -11 12 -82 13 -169 1 -108 5
-150 14 -153 8 -3 9 -7 2 -11 -16 -10 -22 -53 -27 -186 -5 -132 -7 -144 -19
-163 -4 -7 -3 -19 3 -26 6 -7 7 -16 3 -20 -4 -4 -7 -12 -7 -17 0 -5 -4 -9 -10
-9 -9 0 -11 193 -2 265 2 17 -3 42 -10 57 -15 32 -16 41 -4 34 5 -4 8 18 5 51
-5 76 -5 66 2 158 8 107 8 218 0 243 -4 11 -2 23 3 26 6 4 7 14 4 22 -3 9 0
20 8 25 11 7 11 9 -2 9 -17 0 -17 -1 -6 118 2 21 -3 39 -15 52 -18 20 -18 20
0 20 16 0 19 7 17 47 -2 26 -7 49 -13 51 -21 7 -1 28 25 26 20 0 27 -6 28 -22z
m3715 12 c0 -8 -4 -12 -10 -9 -5 3 -10 10 -10 16 0 5 5 9 10 9 6 0 10 -7 10
-16z m-4230 -3 c0 -5 -7 -11 -15 -15 -15 -5 -20 5 -8 17 9 10 23 9 23 -2z
m5687 -3 c18 -23 19 -113 3 -133 -8 -10 -10 -30 -6 -60 8 -52 1 -72 -20 -54
-8 6 -14 28 -14 48 0 21 -6 45 -13 55 -10 14 -11 30 -5 65 5 25 9 56 10 69 0
24 29 31 45 10z m-6597 -62 c0 -14 -5 -28 -11 -32 -6 -3 -9 -15 -6 -25 3 -11
1 -19 -4 -19 -5 0 -9 23 -9 50 0 38 4 50 15 50 9 0 15 -9 15 -24z m4750 14 c0
-5 -2 -10 -4 -10 -3 0 -8 5 -11 10 -3 6 -1 10 4 10 6 0 11 -4 11 -10z m-5018
-70 c4 0 8 -6 8 -12 -1 -7 -10 -2 -20 11 -11 13 -20 31 -19 40 1 9 6 5 12 -11
6 -16 14 -28 19 -28z m-100 3 c24 -21 23 -40 -3 -54 -26 -13 -36 -4 -44 39 -4
26 -2 32 12 32 9 0 25 -7 35 -17z m518 -7 c0 -2 -11 -6 -25 -8 -13 -3 -22 -1
-19 3 5 9 44 13 44 5z m-180 -93 c0 -6 5 -24 12 -40 18 -44 17 -52 -4 -58 -23
-8 -38 -43 -36 -88 1 -41 -7 -57 -32 -57 -24 0 -31 12 -35 58 -4 39 9 86 31
112 7 8 14 27 16 42 2 15 7 30 10 34 4 3 4 13 1 21 -5 13 -3 13 16 2 11 -8 21
-19 21 -26z m-160 23 c0 -2 -9 -6 -20 -9 -11 -3 -18 -1 -14 4 5 9 34 13 34 5z
m5060 -66 c0 -5 -5 -10 -11 -10 -5 0 -7 5 -4 10 3 6 8 10 11 10 2 0 4 -4 4
-10z m-5566 -49 c-7 -9 -24 13 -24 32 0 21 1 21 13 -3 8 -14 12 -27 11 -29z
m7316 -30 c0 -22 -16 -36 -24 -22 -8 12 3 41 15 41 5 0 9 -9 9 -19z m278 -43
c-6 -18 -28 -21 -28 -4 0 9 7 16 16 16 9 0 14 -5 12 -12z m-3618 -8 c0 -5 -4
-10 -10 -10 -5 0 -10 5 -10 10 0 6 5 10 10 10 6 0 10 -4 10 -10z m3350 -15 c0
-8 -4 -15 -9 -15 -13 0 -22 16 -14 24 11 11 23 6 23 -9z m-6979 -53 c-15 -28
-14 -42 3 -36 8 3 16 -4 19 -18 3 -13 9 -33 12 -45 6 -17 3 -23 -8 -23 -9 0
-21 -9 -27 -19 -14 -27 -13 -64 3 -58 6 2 12 14 12 27 0 13 5 25 11 27 13 4 7
-102 -7 -129 -5 -10 -27 -19 -53 -23 -50 -8 -84 0 -49 10 19 6 22 14 21 58 0
38 5 55 19 67 10 8 19 26 19 40 1 14 5 36 10 50 7 23 6 24 -10 11 -25 -21 -31
-6 -9 26 11 15 23 37 27 47 3 10 9 16 12 13 3 -3 1 -14 -5 -25z m5214 18 c-3
-5 -11 -10 -16 -10 -6 0 -7 5 -4 10 3 6 11 10 16 10 6 0 7 -4 4 -10z m-3712
-20 c3 -11 1 -18 -4 -14 -5 3 -9 12 -9 20 0 20 7 17 13 -6z m-1896 -42 c-3 -8
-6 -5 -6 6 -1 11 2 17 5 13 3 -3 4 -12 1 -19z m7423 -14 c0 -13 -5 -24 -11
-24 -6 0 -9 7 -6 15 4 8 2 17 -4 20 -5 4 -7 11 -3 16 9 16 24 0 24 -27z
m-6716 -9 c-8 -45 -23 -75 -39 -75 -21 0 -20 63 1 84 24 25 43 20 38 -9z
m6569 -160 c-3 -9 -8 -14 -10 -11 -3 3 -2 9 2 15 9 16 15 13 8 -4z m-7138 -25
c3 -5 -1 -10 -9 -10 -9 0 -16 5 -16 10 0 6 4 10 9 10 6 0 13 -4 16 -10z m6639
-12 c21 -29 20 -38 -3 -38 -24 0 -45 25 -37 45 8 21 22 19 40 -7z m-4144 -7
c-13 -26 -13 -31 5 -31 18 0 20 -21 3 -39 -11 -10 -9 -11 7 -5 19 7 19 7 3
-13 -22 -24 -23 -41 -4 -62 9 -10 16 -51 20 -108 5 -85 4 -93 -12 -93 -10 0
-27 -6 -37 -14 -18 -13 -18 -15 -2 -40 10 -14 26 -26 37 -26 13 0 20 -7 20
-19 0 -11 3 -22 8 -25 4 -2 8 -50 10 -106 1 -56 5 -106 8 -111 2 -5 7 -191 10
-413 3 -223 7 -415 9 -428 4 -19 6 -398 3 -490 0 -16 -5 -28 -10 -28 -4 0 -6
-11 -4 -25 4 -21 1 -24 -20 -23 -23 2 -35 18 -13 18 6 0 8 9 4 21 -13 39 -18
91 -34 329 -21 302 -31 486 -32 595 -1 61 -4 114 -7 119 -13 24 -22 836 -8
836 4 0 5 16 2 35 -5 27 -3 37 8 41 12 5 13 11 6 24 -15 28 -12 67 6 84 21 22
27 20 14 -3z m-2488 -40 c4 -3 3 -12 -1 -20 -7 -10 -13 -11 -30 -2 -29 16 -28
45 2 36 12 -4 25 -10 29 -14z m7283 9 c3 -5 1 -10 -4 -10 -6 0 -11 5 -11 10 0
6 2 10 4 10 3 0 8 -4 11 -10z m-6792 -20 c3 -11 5 -22 4 -24 -1 -1 3 -9 9 -17
16 -20 12 -62 -6 -64 -10 -2 -16 7 -17 29 -1 17 -4 46 -8 64 -8 35 9 46 18 12z
m1385 -20 c14 0 15 -2 2 -9 -18 -12 -30 -5 -29 17 0 11 3 12 6 5 2 -7 12 -13
21 -13z m3612 18 c0 -2 -7 -21 -15 -43 -19 -52 -18 -65 1 -65 12 0 14 -5 9
-17 -4 -10 -9 -33 -11 -52 -2 -19 -8 -39 -13 -44 -6 -6 -5 -15 5 -24 19 -19
19 -39 -1 -23 -13 10 -15 9 -15 -8 0 -14 -5 -20 -14 -16 -10 4 -14 23 -13 65
0 32 3 59 7 59 4 0 10 9 13 21 4 15 2 19 -9 15 -20 -8 -17 11 4 23 10 6 12 11
4 11 -9 0 -8 7 4 26 14 21 15 27 4 34 -7 4 -9 13 -6 19 4 6 12 9 17 6 5 -4 9
-1 9 4 0 6 5 11 10 11 6 0 10 -1 10 -2z m2103 -37 c3 -11 -1 -28 -8 -37 -11
-16 -13 -15 -20 14 -10 49 15 71 28 23z m-7032 -13 c2 -26 10 -73 14 -77 3 -2
12 2 20 9 13 11 13 15 3 22 -10 7 -10 9 2 5 18 -4 27 -47 10 -47 -7 0 -9 -8
-5 -20 6 -19 -11 -28 -40 -20 -5 2 -19 4 -30 5 -37 3 -53 15 -48 36 6 21 19
25 25 7 2 -6 12 -9 21 -5 13 5 15 16 12 52 -3 26 -1 45 5 45 6 0 10 -6 11 -12z
m3284 -7 c-3 -6 -14 -11 -23 -11 -15 1 -15 2 2 15 21 16 32 13 21 -4z m-3182
-27 c-7 -18 -27 -13 -31 9 -2 11 2 14 17 10 12 -3 17 -11 14 -19z m1237 5 c0
-6 -4 -7 -10 -4 -5 3 -10 11 -10 16 0 6 5 7 10 4 6 -3 10 -11 10 -16z m420
-10 c0 -5 -7 -9 -15 -9 -9 0 -12 6 -9 15 6 15 24 11 24 -6z m-1978 -68 l18
-24 -36 -24 c-33 -23 -38 -24 -71 -11 -41 15 -48 32 -16 36 23 3 41 34 24 40
-22 7 -10 24 14 20 14 -3 28 -1 32 5 4 7 8 6 11 -3 3 -8 13 -26 24 -39z m7238
33 c0 -8 -4 -12 -10 -9 -5 3 -10 10 -10 16 0 5 5 9 10 9 6 0 10 -7 10 -16z
m-920 -59 c10 -12 10 -15 -4 -15 -9 0 -16 7 -16 15 0 8 2 15 4 15 2 0 9 -7 16
-15z m662 -9 c16 -23 15 -66 -3 -66 -13 0 -29 36 -29 64 0 32 10 33 32 2z
m-6772 -86 c0 -12 -28 -25 -36 -17 -9 9 6 27 22 27 8 0 14 -5 14 -10z m-341
-14 c13 -16 -4 -26 -45 -26 -30 0 -31 18 -1 30 30 12 33 12 46 -4z m416 -15
c3 -5 1 -12 -5 -16 -5 -3 -10 1 -10 9 0 18 6 21 15 7z m2949 -20 c3 -5 -1 -11
-9 -14 -9 -4 -12 -1 -8 9 6 16 10 17 17 5z m1731 -1 c3 -5 -1 -10 -9 -10 -8 0
-18 5 -21 10 -3 6 1 10 9 10 8 0 18 -4 21 -10z m-3135 -33 c0 -5 -4 -5 -10 -2
-5 3 -10 14 -10 23 0 15 2 15 10 2 5 -8 10 -19 10 -23z m-1915 13 c18 -8 17
-9 -7 -9 -16 -1 -28 4 -28 9 0 12 8 12 35 0z m4979 -45 c16 -24 16 -25 -9 -25
-18 0 -25 5 -25 18 0 16 8 32 16 32 1 0 9 -11 18 -25z m-5031 -10 c-20 -27
-33 -32 -33 -12 0 17 20 37 37 37 11 0 9 -6 -4 -25z m3747 15 c0 -5 -4 -10
-10 -10 -5 0 -10 5 -10 10 0 6 5 10 10 10 6 0 10 -4 10 -10z m-3520 -27 c0
-13 -3 -13 -15 -3 -8 7 -12 16 -9 21 8 13 24 1 24 -18z m3690 -13 c0 -5 -10
-10 -22 -10 -19 0 -20 2 -8 10 19 13 30 13 30 0z m-2125 -50 c-1 -23 -8 -47
-14 -53 -9 -9 -11 -8 -6 6 4 9 3 17 -3 17 -11 0 -10 25 1 36 4 4 7 16 7 26 0
11 4 17 9 14 4 -3 7 -24 6 -46z m3325 8 c0 -12 -18 -19 -24 -9 -4 5 -20 7 -37
4 -21 -3 -29 -1 -24 6 3 6 13 11 21 11 8 0 14 4 14 9 0 5 11 4 25 -2 14 -7 25
-15 25 -19z m630 12 c0 -5 -5 -10 -11 -10 -5 0 -7 5 -4 10 3 6 8 10 11 10 2 0
4 -4 4 -10z m-5848 -52 c-8 -8 -9 -4 -5 13 4 13 8 18 11 10 2 -7 -1 -18 -6
-23z m4034 5 c-10 -10 -19 5 -10 18 6 11 8 11 12 0 2 -7 1 -15 -2 -18z m3361
-6 c-8 -26 -108 -35 -127 -13 -6 8 -19 12 -28 9 -11 -3 -13 -2 -5 4 19 13 165
13 160 0z m-3221 -12 c9 -8 11 -15 6 -15 -5 0 -15 7 -22 15 -7 8 -9 15 -6 15
4 0 14 -7 22 -15z m1659 -5 c3 -5 2 -10 -4 -10 -5 0 -13 5 -16 10 -3 6 -2 10
4 10 5 0 13 -4 16 -10z m-1915 -10 c0 -5 -5 -10 -11 -10 -5 0 -7 5 -4 10 3 6
8 10 11 10 2 0 4 -4 4 -10z m-3907 -20 c3 -11 1 -18 -4 -14 -5 3 -9 12 -9 20
0 20 7 17 13 -6z m7277 0 c0 -5 -9 -10 -20 -10 -11 0 -20 5 -20 10 0 6 9 10
20 10 11 0 20 -4 20 -10z m-2434 -47 c-1 -1 -12 1 -25 4 -23 6 -23 7 -5 20 16
12 19 11 25 -4 4 -10 6 -19 5 -20z m-1416 23 c0 -3 -4 -8 -10 -11 -5 -3 -10
-1 -10 4 0 6 5 11 10 11 6 0 10 -2 10 -4z m-36 -15 c3 -5 -1 -11 -9 -15 -9 -3
-15 0 -15 9 0 16 16 20 24 6z m501 -11 c-3 -5 -12 -7 -20 -3 -21 7 -19 13 6
13 11 0 18 -4 14 -10z m48 3 c-7 -2 -19 -2 -25 0 -7 3 -2 5 12 5 14 0 19 -2
13 -5z m1492 -13 c3 -5 -1 -10 -10 -10 -9 0 -13 5 -10 10 3 6 8 10 10 10 2 0
7 -4 10 -10z m-585 -20 c8 -11 20 -20 27 -20 9 0 11 -15 9 -51 -2 -28 -1 -75
3 -104 l7 -52 -39 1 c-30 0 -44 -5 -58 -23 -20 -25 -26 -13 -9 19 7 13 7 21 0
25 -7 4 -7 12 0 25 6 11 9 25 8 32 -2 7 4 12 14 10 32 -5 58 17 58 48 0 31
-30 56 -55 46 -16 -6 -17 31 -2 52 13 17 20 15 37 -8z m2559 -1 c-22 -14 -33
-10 -19 6 7 8 17 12 22 9 6 -4 5 -10 -3 -15z m-5313 -16 c5 -28 -42 -39 -49
-11 -3 11 0 18 10 18 8 0 12 4 9 9 -4 5 1 8 11 7 9 -2 18 -12 19 -23z m1254
17 c0 -5 -5 -10 -11 -10 -5 0 -7 5 -4 10 3 6 8 10 11 10 2 0 4 -4 4 -10z m57
-16 c-3 -4 -14 -3 -24 0 -15 6 -15 8 -3 16 16 10 39 -4 27 -16z m-747 11 c0
-2 -10 -10 -22 -16 -21 -11 -22 -11 -9 4 13 16 31 23 31 12z m542 -20 c0 -5
-5 -11 -11 -13 -6 -2 -11 4 -11 13 0 9 5 15 11 13 6 -2 11 -8 11 -13z m-432
-5 c0 -5 -8 -10 -17 -10 -15 0 -16 2 -3 10 19 12 20 12 20 0z m578 -60 c-1
-17 -4 -30 -8 -30 -14 0 -21 32 -10 45 5 6 6 16 2 20 -4 5 -2 5 5 1 6 -3 11
-20 11 -36z m-838 -15 c0 -8 -2 -15 -4 -15 -2 0 -6 7 -10 15 -3 8 -1 15 4 15
6 0 10 -7 10 -15z m2805 -5 c3 -5 1 -10 -4 -10 -6 0 -11 5 -11 10 0 6 2 10 4
10 3 0 8 -4 11 -10z m-1990 -29 c18 -7 17 -8 -6 -13 -29 -5 -49 0 -49 13 0 11
27 11 55 0z m79 -49 c-5 -14 -4 -15 5 -2 5 8 13 11 17 8 3 -4 0 -14 -9 -22
-13 -14 -16 -14 -21 0 -9 24 -7 46 4 39 5 -3 7 -13 4 -23z m-834 -16 c0 -3 -4
-8 -10 -11 -5 -3 -10 -1 -10 4 0 6 5 11 10 11 6 0 10 -2 10 -4z m704 -25 c3
-5 -1 -11 -9 -15 -9 -3 -15 0 -15 9 0 16 16 20 24 6z m-1364 -70 c0 -5 -12 -8
-26 -8 -16 0 -21 2 -14 7 7 4 9 13 5 20 -6 9 -3 9 14 1 11 -7 21 -15 21 -20z
m660 10 c0 -6 -4 -13 -10 -16 -5 -3 -10 1 -10 9 0 9 5 16 10 16 6 0 10 -4 10
-9z m2805 -9 c-3 -3 -11 0 -18 7 -9 10 -8 11 6 5 10 -3 15 -9 12 -12z m1645
-24 c16 -17 28 -34 26 -36 -7 -6 -64 39 -70 55 -9 24 14 14 44 -19z m-2144
-35 c35 6 46 -5 34 -37 -3 -11 -3 -38 0 -61 4 -23 3 -52 -1 -63 -5 -12 -4 -24
2 -28 5 -3 7 -13 5 -22 -3 -10 -8 -96 -10 -192 -9 -296 -18 -515 -22 -522 -2
-4 0 -9 5 -13 6 -3 2 -14 -9 -25 -22 -22 -26 -40 -10 -40 6 0 10 5 10 12 0 9
3 9 11 1 7 -7 8 -17 3 -25 -5 -7 -9 -35 -11 -63 -1 -27 -7 -72 -13 -100 -6
-27 -10 -77 -10 -110 1 -67 -3 -95 -13 -112 -4 -6 -5 -18 -1 -26 11 -31 -25
-26 -44 6 -28 46 -36 116 -45 407 -3 85 -6 180 -7 210 -3 63 10 464 17 558 3
43 1 62 -7 62 -7 0 -5 7 5 17 13 13 16 33 15 92 -2 42 -2 87 -1 99 l1 24 32
-27 c25 -21 39 -26 64 -22z m-2976 13 c0 -3 -4 -8 -10 -11 -5 -3 -10 -1 -10 4
0 6 5 11 10 11 6 0 10 -2 10 -4z m1600 -5 c0 -9 -24 -21 -41 -21 -5 0 -9 4 -9
10 0 5 7 7 15 4 8 -4 15 -1 15 5 0 6 5 11 10 11 6 0 10 -4 10 -9z m65 -41 c3
-5 -3 -10 -14 -10 -12 0 -21 5 -21 10 0 6 6 10 14 10 8 0 18 -4 21 -10z m-205
-32 c0 -5 -9 -8 -20 -8 -11 0 -20 -6 -20 -12 0 -9 -3 -8 -9 2 -6 8 -8 17 -6
20 5 8 55 6 55 -2z m-1350 -7 c0 -5 -7 -12 -16 -15 -14 -5 -15 -4 -4 9 14 17
20 19 20 6z m1584 -10 c11 -4 15 -10 10 -13 -14 -9 -65 3 -58 13 6 11 22 11
48 0z m-274 -46 c-6 -8 -19 -11 -27 -8 -14 5 -14 8 2 19 22 16 40 8 25 -11z
m180 -15 c0 -5 -5 -10 -11 -10 -5 0 -7 5 -4 10 3 6 8 10 11 10 2 0 4 -4 4 -10z
m3459 -35 c15 -31 24 -135 11 -135 -10 0 -38 85 -44 134 -5 44 12 45 33 1z
m-3489 15 c0 -5 -2 -10 -4 -10 -3 0 -8 5 -11 10 -3 6 -1 10 4 10 6 0 11 -4 11
-10z m-149 -25 c-1 -15 -24 -12 -29 3 -3 9 2 13 12 10 10 -1 17 -7 17 -13z
m-1171 -45 c0 -5 -2 -10 -4 -10 -3 0 -8 5 -11 10 -3 6 -1 10 4 10 6 0 11 -4
11 -10z m1285 0 c-3 -5 -11 -10 -16 -10 -6 0 -7 5 -4 10 3 6 11 10 16 10 6 0
7 -4 4 -10z m3053 -2 c-6 -18 -28 -21 -28 -4 0 9 7 16 16 16 9 0 14 -5 12 -12z
m-3403 -20 c6 -4 2 -8 -7 -8 -10 0 -18 7 -18 17 0 9 3 12 8 7 4 -5 12 -12 17
-16z m-1405 2 c0 -5 -5 -10 -11 -10 -5 0 -7 5 -4 10 3 6 8 10 11 10 2 0 4 -4
4 -10z m1725 0 c3 -6 -1 -7 -9 -4 -18 7 -21 14 -7 14 6 0 13 -4 16 -10z m1265
-11 c0 -6 -4 -7 -10 -4 -5 3 -10 11 -10 16 0 6 5 7 10 4 6 -3 10 -11 10 -16z
m-1370 -3 c0 -3 -4 -8 -10 -11 -5 -3 -10 -1 -10 4 0 6 5 11 10 11 6 0 10 -2
10 -4z m434 -16 c7 -7 6 -14 -1 -21 -6 -6 -9 -17 -7 -24 3 -7 1 -16 -5 -20 -6
-3 -11 -2 -11 3 0 6 -15 10 -32 11 -18 0 -45 2 -60 4 -16 3 -28 1 -28 -3 0 -4
-13 -7 -30 -7 -16 0 -30 5 -30 10 0 5 -8 6 -17 3 -11 -4 -8 2 7 14 14 11 30
20 36 20 7 0 23 6 37 13 29 15 125 13 141 -3z m-2054 6 c0 -3 -4 -8 -10 -11
-5 -3 -10 -1 -10 4 0 6 5 11 10 11 6 0 10 -2 10 -4z m1440 -6 c0 -5 -5 -10
-11 -10 -5 0 -7 5 -4 10 3 6 8 10 11 10 2 0 4 -4 4 -10z m289 -19 c-15 -5 -22
6 -14 19 6 9 10 9 16 -1 5 -8 4 -15 -2 -18z m3596 -51 c-3 -5 -12 -7 -20 -4
-12 5 -12 10 -4 27 10 18 12 19 21 4 5 -10 6 -21 3 -27z m-3748 4 c-3 -3 -12
-4 -19 -1 -8 3 -5 6 6 6 11 1 17 -2 13 -5z m561 -41 l27 -25 -24 -19 c-29 -24
-32 -24 -65 2 -24 19 -28 39 -17 77 3 9 57 -15 79 -35z m23 -75 c0 -10 2 -10
6 0 6 16 28 15 43 -3 20 -24 3 -35 -34 -20 -18 8 -37 11 -40 7 -4 -3 -4 1 0
11 7 20 24 23 25 5z m3255 -35 c-10 -10 -19 5 -10 18 6 11 8 11 12 0 2 -7 1
-15 -2 -18z m-3186 -27 c0 -3 -4 -8 -10 -11 -5 -3 -10 -1 -10 4 0 6 5 11 10
11 6 0 10 -2 10 -4z m3329 -133 c1 -6 -6 -18 -14 -27 -13 -12 -29 -14 -74 -7
-3 1 4 7 14 15 11 8 23 12 28 9 4 -2 13 10 19 28 10 29 12 31 19 13 4 -10 8
-24 8 -31z m-99 -13 c0 -5 -7 -10 -16 -10 -10 0 -14 -6 -10 -15 7 -18 -15 -20
-32 -3 -18 18 -14 31 8 25 11 -3 23 -1 26 4 7 12 24 11 24 -1z m-6645 -67
c-29 -43 -23 -124 12 -169 15 -21 22 -35 14 -33 -26 9 -54 57 -61 103 -7 49
18 126 41 126 7 0 5 -10 -6 -27z m-105 -12 c0 -5 -7 -12 -16 -15 -14 -5 -15
-4 -4 9 14 17 20 19 20 6z m-38 -116 c0 -5 -5 -11 -11 -13 -6 -2 -11 4 -11 13
0 9 5 15 11 13 6 -2 11 -8 11 -13z m6773 -15 c3 -5 -1 -10 -9 -10 -8 0 -18 5
-21 10 -3 6 1 10 9 10 8 0 18 -4 21 -10z m14 -76 c11 -4 10 -8 -4 -24 -21 -24
-51 -26 -59 -5 -3 8 -13 15 -23 15 -17 1 -17 2 1 15 17 13 41 13 85 -1z
m-4659 -114 c0 -5 -2 -10 -4 -10 -3 0 -8 5 -11 10 -3 6 -1 10 4 10 6 0 11 -4
11 -10z m3595 -74 c10 -34 12 -54 4 -67 -14 -28 -29 -23 -29 9 0 15 -4 43 -10
62 -11 40 -4 82 11 59 5 -8 16 -36 24 -63z m-5568 -8 c-3 -7 -5 -2 -5 12 0 14
2 19 5 13 2 -7 2 -19 0 -25z m1948 2 c-3 -5 -11 -10 -16 -10 -6 0 -7 5 -4 10
3 6 11 10 16 10 6 0 7 -4 4 -10z m6 -86 c7 -9 8 -14 1 -14 -6 0 -13 6 -15 13
-3 6 -8 -3 -12 -21 -7 -31 -25 -55 -25 -33 0 6 -7 11 -15 11 -16 0 -20 12 -7
24 4 4 8 12 8 17 2 16 4 17 29 17 13 0 30 -7 36 -14z m19 -48 c0 -15 -14 -35
-21 -30 -15 9 -10 34 6 34 8 0 15 -2 15 -4z m1264 -61 c-4 -8 -12 -15 -20 -15
-8 0 -14 7 -14 15 0 8 9 15 20 15 13 0 18 -5 14 -15z m-739 -35 c3 -5 19 -10
35 -10 16 0 31 -4 34 -9 3 -5 16 -7 27 -4 16 5 20 2 17 -8 -3 -8 -11 -13 -17
-11 -7 1 -11 -4 -9 -12 3 -16 -1 -17 -32 -9 -11 3 -20 12 -20 19 0 17 -5 17
-30 4 -22 -12 -44 9 -34 34 7 18 20 21 29 6z m-1475 -26 c0 -8 -7 -14 -15 -14
-15 0 -21 21 -9 33 10 9 24 -2 24 -19z m1309 -34 c0 -10 -3 -8 -9 5 -12 27
-12 43 0 25 5 -8 9 -22 9 -30z m181 -10 c13 -9 12 -12 -4 -25 -11 -8 -14 -15
-8 -15 7 0 12 -4 12 -10 0 -12 -27 -14 -33 -2 -7 10 4 62 12 62 3 0 13 -5 21
-10z m-1533 -6 c-3 -3 -12 -4 -19 -1 -8 3 -5 6 6 6 11 1 17 -2 13 -5z m1598
-55 c-10 -15 -55 -11 -55 5 0 8 6 16 13 19 17 6 49 -12 42 -24z m-255 2 c0
-11 -4 -22 -9 -25 -4 -3 -6 -17 -3 -31 2 -15 0 -25 -7 -25 -7 0 -9 5 -6 10 4
6 2 17 -4 24 -8 9 -8 22 -1 40 11 30 30 35 30 7z m628 8 c-2 -6 -8 -10 -13
-10 -5 0 -11 4 -13 10 -2 6 4 11 13 11 9 0 15 -5 13 -11z m42 -54 c-5 -13 -6
-26 -2 -31 4 -4 1 -4 -6 0 -7 4 -10 12 -7 17 4 5 0 9 -9 9 -11 0 -15 20 -7 37
1 0 10 -1 20 -4 16 -4 18 -9 11 -28z m-100 -9 c0 -2 -9 -6 -20 -9 -11 -3 -18
-1 -14 4 5 9 34 13 34 5z m-596 -70 c-6 -15 -24 -23 -24 -11 0 8 24 34 28 30
1 -1 0 -10 -4 -19z m689 2 c6 -22 5 -22 -8 -4 -14 18 -16 18 -33 3 -10 -9 -29
-17 -43 -17 -22 1 -21 3 11 20 46 25 66 25 73 -2z m-16 -50 c-3 -7 -5 -2 -5
12 0 14 2 19 5 13 2 -7 2 -19 0 -25z m183 18 c0 -2 -7 -6 -15 -10 -8 -3 -15
-1 -15 4 0 6 7 10 15 10 8 0 15 -2 15 -4z m-1245 -16 c3 -5 1 -10 -4 -10 -6 0
-11 5 -11 10 0 6 2 10 4 10 3 0 8 -4 11 -10z m4695 -28 c0 -7 -4 -10 -10 -7
-5 3 -10 16 -10 28 0 18 2 19 10 7 5 -8 10 -21 10 -28z m-4011 14 c9 -11 9
-16 0 -21 -6 -4 -15 -2 -19 5 -4 7 -13 10 -19 6 -7 -5 -9 -1 -5 8 8 20 28 20
43 2z m-530 -32 c3 -16 1 -17 -13 -5 -19 16 -21 34 -3 29 6 -3 14 -13 16 -24z
m915 -16 c24 2 28 0 16 -7 -12 -9 -10 -11 12 -11 29 0 57 -33 38 -45 -5 -3
-10 -1 -10 4 0 11 -63 41 -92 44 -9 1 -19 9 -22 20 -4 15 -2 16 11 5 9 -7 30
-11 47 -10z m-810 -19 c-3 -5 -12 -9 -21 -9 -12 0 -13 3 -4 13 6 8 7 18 3 23
-4 4 1 2 10 -5 10 -7 15 -17 12 -22z m4482 0 c0 -8 4 -27 9 -43 5 -17 4 -36
-2 -46 -6 -9 -9 -28 -6 -43 4 -20 1 -27 -11 -27 -9 0 -16 7 -16 15 0 8 -6 14
-12 13 -7 -2 -13 6 -14 17 0 11 -4 28 -8 38 -10 20 7 67 24 67 5 0 10 7 10 16
0 19 25 13 26 -7z m-4662 5 c9 -3 16 -10 16 -15 0 -14 -26 -10 -40 6 -13 16
-3 20 24 9z m1012 -51 c-2 -2 -11 0 -20 3 -14 5 -15 9 -5 15 12 7 34 -10 25
-18z m-664 -5 c-9 -9 -15 -9 -24 0 -9 9 -7 12 12 12 19 0 21 -3 12 -12z m205
-10 c-3 -8 -6 -5 -6 6 -1 11 2 17 5 13 3 -3 4 -12 1 -19z m563 2 c0 -5 -5 -10
-11 -10 -5 0 -7 5 -4 10 3 6 8 10 11 10 2 0 4 -4 4 -10z m-1080 -21 c0 -11 -3
-11 -24 -3 -23 9 -20 23 4 17 11 -3 20 -9 20 -14z m955 0 c-3 -4 -12 -6 -20
-2 -8 3 -15 0 -15 -6 0 -6 -7 -11 -15 -11 -8 0 -15 5 -15 12 0 6 3 9 6 5 4 -3
13 0 20 8 15 15 48 10 39 -6z m-715 -25 c0 -14 -4 -23 -10 -19 -5 3 -10 15
-10 26 0 10 5 19 10 19 6 0 10 -12 10 -26z m855 16 c3 -6 -1 -7 -9 -4 -18 7
-21 14 -7 14 6 0 13 -4 16 -10z m-68 -16 c-3 -3 -12 -4 -19 -1 -8 3 -5 6 6 6
11 1 17 -2 13 -5z m36 -5 c-6 -6 -9 -18 -6 -25 3 -8 1 -14 -5 -14 -26 0 -13
49 13 50 5 0 4 -5 -2 -11z m-1074 -26 c1 -1 0 -7 -4 -13 -9 -14 -35 6 -35 27
0 13 3 13 18 2 9 -7 19 -14 21 -16z m281 23 c0 -3 -4 -8 -10 -11 -5 -3 -10 -1
-10 4 0 6 5 11 10 11 6 0 10 -2 10 -4z m590 -21 c0 -8 -4 -15 -10 -15 -5 0 -7
7 -4 15 4 8 8 15 10 15 2 0 4 -7 4 -15z m-1190 -7 c0 -7 -7 -21 -14 -31 -19
-24 -31 -4 -14 23 14 22 28 26 28 8z m860 2 c0 -5 -5 -10 -11 -10 -5 0 -7 5
-4 10 3 6 8 10 11 10 2 0 4 -4 4 -10z m153 -5 c-3 -9 -8 -14 -10 -11 -3 3 -2
9 2 15 9 16 15 13 8 -4z m297 -2 c0 -1 -9 -7 -19 -12 -14 -8 -20 -7 -25 4 -4
11 1 14 19 13 14 -1 25 -3 25 -5z m1158 -26 c12 -11 22 -16 22 -10 0 7 18 11
44 10 30 -1 42 -6 39 -14 -3 -7 -10 -13 -17 -14 -15 -1 -45 -7 -79 -15 -24 -6
-29 -3 -42 30 -8 19 -15 38 -15 41 0 8 21 -4 48 -28z m-1270 -7 c7 0 12 5 12
10 0 7 6 7 19 0 11 -5 29 -10 40 -10 24 0 26 -8 7 -33 -12 -16 -15 -15 -40 9
-20 21 -26 23 -26 10 0 -14 -4 -15 -20 -6 -11 6 -25 20 -31 33 -12 21 -11 21
8 5 11 -10 25 -18 31 -18z m-843 9 c4 -6 5 -12 2 -15 -7 -7 -37 7 -37 17 0 13
27 11 35 -2z m256 -16 c-8 -15 -10 -15 -11 -2 0 17 10 32 18 25 2 -3 -1 -13
-7 -23z m850 13 c5 3 9 -2 9 -10 0 -9 -4 -16 -10 -16 -5 0 -10 2 -10 4 0 2 -2
10 -3 18 -2 7 -2 10 0 5 3 -4 9 -5 14 -1z m-661 -6 c0 -5 -2 -10 -4 -10 -3 0
-8 5 -11 10 -3 6 -1 10 4 10 6 0 11 -4 11 -10z m600 -5 c-7 -8 -19 -15 -27
-15 -12 0 -13 -3 -4 -14 9 -11 8 -15 -4 -20 -9 -3 -14 -2 -11 2 8 13 -11 35
-23 28 -6 -4 -9 -12 -6 -17 4 -5 1 -9 -4 -9 -6 0 -10 -3 -10 -7 3 -18 -2 -33
-10 -33 -5 0 -7 15 -5 33 1 17 3 37 3 44 1 12 31 10 51 -2 6 -3 13 1 16 9 3 9
15 16 26 16 17 0 18 -3 8 -15z m-1575 -6 c11 -17 -1 -21 -15 -4 -8 9 -8 15 -2
15 6 0 14 -5 17 -11z m1027 -8 c-5 -3 -12 -13 -15 -21 -3 -9 -6 -4 -6 12 -1
21 3 26 15 21 9 -3 11 -9 6 -12z m-192 -4 c0 -8 -10 -22 -21 -33 -22 -19 -22
-19 -10 4 6 12 9 22 6 22 -4 0 -3 5 0 10 9 14 25 12 25 -3z m-868 -38 c-26
-10 -37 2 -17 18 15 10 20 10 27 1 4 -8 1 -15 -10 -19z m1449 -7 c-7 -2 -18 1
-23 6 -8 8 -4 9 13 5 13 -4 18 -8 10 -11z m1801 -4 c-7 -7 -12 -8 -12 -2 0 14
12 26 19 19 2 -3 -1 -11 -7 -17z m-1628 -5 c16 -5 36 -19 44 -31 13 -20 13
-22 -6 -22 -12 0 -24 5 -27 10 -12 19 -26 11 -15 -9 18 -34 11 -40 -27 -21
-24 12 -39 15 -42 8 -2 -6 4 -15 13 -20 13 -7 14 -13 5 -29 -8 -16 -13 -18
-25 -8 -8 6 -14 17 -14 24 0 15 -44 29 -48 15 -5 -13 -22 -13 -22 -1 0 12 39
26 63 22 11 -1 17 4 17 18 0 12 5 21 10 21 7 0 7 6 1 18 -8 16 -6 18 17 16 15
-2 40 -7 56 -11z m-1334 -37 c0 -8 -4 -18 -10 -21 -5 -3 -10 3 -10 14 0 12 5
21 10 21 6 0 10 -6 10 -14z m735 -26 c1 -11 -2 -20 -7 -20 -4 0 -8 12 -8 27 0
30 13 24 15 -7z m400 20 c-3 -5 -12 -10 -18 -10 -7 0 -6 4 3 10 19 12 23 12
15 0z m2080 0 c3 -5 1 -10 -4 -10 -6 0 -11 5 -11 10 0 6 2 10 4 10 3 0 8 -4
11 -10z m-3495 -4 c0 -2 -7 -6 -15 -10 -8 -3 -15 -1 -15 4 0 6 7 10 15 10 8 0
15 -2 15 -4z m3455 -6 c3 -5 1 -10 -4 -10 -6 0 -11 5 -11 10 0 6 2 10 4 10 3
0 8 -4 11 -10z m-2385 -10 c0 -5 -4 -10 -10 -10 -5 0 -10 5 -10 10 0 6 5 10
10 10 6 0 10 -4 10 -10z m4091 -37 c5 -13 3 -28 -5 -39 -13 -16 -15 -15 -31
15 -14 28 -14 35 -3 42 18 12 30 7 39 -18z m-4031 -32 c0 -26 -17 -44 -34 -38
-21 8 -20 25 2 23 18 -1 19 3 8 44 -7 24 -6 24 8 6 9 -11 16 -27 16 -35z m90
40 c0 -14 -16 -26 -36 -27 -31 -1 -19 31 12 32 13 1 24 -1 24 -5z m207 3 c-3
-3 -12 -4 -19 -1 -8 3 -5 6 6 6 11 1 17 -2 13 -5z m-706 -57 c-8 -8 -11 -7
-11 4 0 20 13 34 18 19 3 -7 -1 -17 -7 -23z m229 20 c-9 -7 -14 -21 -12 -32 3
-20 3 -20 -13 0 -14 18 -14 20 7 32 29 16 37 16 18 0z m-80 -23 c0 -17 -24
-29 -39 -20 -6 4 -4 14 7 25 19 20 32 18 32 -5z m320 16 c0 -12 -49 -45 -56
-38 -9 10 8 37 21 32 7 -3 16 -1 20 5 8 14 15 14 15 1z m290 6 c0 -11 -19 -15
-25 -6 -3 5 1 10 9 10 9 0 16 -2 16 -4z m60 -41 c0 -7 -6 -16 -12 -18 -10 -4
-9 -8 2 -16 18 -12 20 -31 6 -50 -9 -12 -8 -13 5 -9 10 4 16 1 16 -8 0 -17
-13 -18 -23 -3 -3 6 -17 8 -33 4 -20 -5 -23 -4 -14 6 6 6 9 18 6 25 -3 8 0 14
6 14 6 0 11 -7 11 -16 0 -8 5 -12 10 -9 14 9 12 21 -7 40 -13 13 -14 18 -3 25
7 4 10 15 7 23 -4 11 -1 14 9 10 7 -3 14 -11 14 -18z m-780 5 c0 -5 -4 -10
-10 -10 -5 0 -10 5 -10 10 0 6 5 10 10 10 6 0 10 -4 10 -10z m530 -10 c0 -5
-5 -10 -11 -10 -5 0 -7 5 -4 10 3 6 8 10 11 10 2 0 4 -4 4 -10z m-50 -15 c0
-8 -7 -15 -16 -15 -10 0 -14 -6 -11 -14 4 -9 -3 -16 -18 -18 -32 -6 -38 21
-10 44 25 21 55 23 55 3z m-370 -15 c0 -5 -4 -10 -10 -10 -5 0 -10 5 -10 10 0
6 5 10 10 10 6 0 10 -4 10 -10z m58 -15 c-3 -3 -9 2 -12 12 -6 14 -5 15 5 6 7
-7 10 -15 7 -18z m52 9 c0 -2 -7 -4 -15 -4 -8 0 -15 4 -15 10 0 5 7 7 15 4 8
-4 15 -8 15 -10z m116 -13 c-9 -14 -36 -15 -36 -1 0 5 7 7 15 4 11 -5 14 -2 9
12 -6 15 -4 16 6 7 7 -6 9 -16 6 -22z m-266 9 c0 -5 -4 -10 -10 -10 -5 0 -10
5 -10 10 0 6 5 10 10 10 6 0 10 -4 10 -10z m2623 -15 c-3 -9 -8 -14 -10 -11
-3 3 -2 9 2 15 9 16 15 13 8 -4z m118 -15 c10 -14 21 -42 25 -62 6 -36 5 -38
-21 -38 -21 0 -25 -4 -21 -18 4 -10 -1 -27 -9 -38 -11 -15 -14 -16 -15 -3 0 8
-16 23 -36 32 -33 16 -41 43 -8 30 9 -3 21 3 31 17 12 17 17 19 24 9 7 -11 9
-9 9 6 -1 11 -7 29 -15 39 -8 11 -15 28 -15 39 0 25 28 18 51 -13z m-2734 -12
c-3 -8 -6 -5 -6 6 -1 11 2 17 5 13 3 -3 4 -12 1 -19z m223 -4 c0 -8 -4 -12
-10 -9 -5 3 -10 10 -10 16 0 5 5 9 10 9 6 0 10 -7 10 -16z m250 -10 c0 -8 -5
-14 -11 -14 -6 0 -8 -7 -5 -16 5 -13 4 -14 -7 -6 -8 7 -17 9 -20 5 -14 -13 -6
-30 18 -41 18 -9 24 -17 21 -34 -3 -13 -5 -26 -5 -30 -1 -5 -6 -8 -12 -8 -7 0
-9 9 -5 24 7 28 -20 59 -33 37 -5 -7 -12 -12 -17 -11 -5 1 -10 -4 -12 -10 -3
-9 1 -9 17 0 12 6 27 10 34 7 6 -2 -10 -12 -36 -22 -47 -18 -61 -40 -32 -51
21 -8 19 -31 -4 -44 -24 -13 -38 4 -21 25 12 14 6 35 -10 35 -5 0 -7 -7 -4
-15 5 -11 2 -13 -10 -9 -9 3 -13 10 -10 15 5 9 -9 13 -33 10 -7 -1 -13 3 -13
9 0 10 14 14 38 11 9 -2 12 4 8 16 -4 13 2 23 22 35 15 8 32 14 38 11 6 -2 14
3 17 12 4 10 1 15 -11 15 -13 0 -14 2 -3 9 8 5 11 16 6 30 -4 12 -2 21 4 21 6
0 10 -5 9 -11 -2 -6 3 -14 10 -16 7 -3 12 3 12 13 0 14 3 15 12 6 17 -17 28
-15 28 4 0 8 5 12 10 9 6 -3 10 -13 10 -21z m-320 12 c0 -3 -4 -8 -10 -11 -5
-3 -10 -1 -10 4 0 6 5 11 10 11 6 0 10 -2 10 -4z m140 -36 c0 -13 5 -17 15
-14 8 4 15 1 15 -5 0 -6 -11 -11 -25 -11 -14 0 -25 -5 -25 -11 0 -5 -5 -7 -11
-3 -8 5 -8 8 0 14 7 4 11 11 10 16 -1 5 -1 17 0 27 1 24 21 11 21 -13z m257
-2 c-3 -7 -5 -2 -5 12 0 14 2 19 5 13 2 -7 2 -19 0 -25z m-427 2 c8 -16 8 -20
-2 -18 -23 5 -39 38 -18 38 5 0 14 -9 20 -20z m500 5 c0 -8 -8 -15 -17 -14
-11 0 -13 3 -5 6 6 2 10 9 6 14 -3 5 0 9 5 9 6 0 11 -7 11 -15z m3218 3 c-6
-18 -28 -21 -28 -4 0 9 7 16 16 16 9 0 14 -5 12 -12z m-2953 -24 c-20 -15 -20
-15 5 -35 l25 -21 -35 6 c-39 7 -45 12 -55 44 -6 20 -3 22 37 22 41 -1 42 -1
23 -16z m-165 -5 c6 11 12 12 22 3 8 -6 25 -8 38 -5 l23 6 -20 -20 c-19 -19
-102 -39 -104 -25 -6 50 -6 50 13 38 15 -9 21 -8 28 3z m-80 -24 c10 -12 9
-15 -8 -15 -11 0 -22 7 -26 15 -3 9 0 15 8 15 7 0 19 -7 26 -15z m-675 -15 c3
-5 1 -10 -4 -10 -6 0 -11 5 -11 10 0 6 2 10 4 10 3 0 8 -4 11 -10z m131 -2 c4
-7 3 -9 -1 -5 -5 4 -15 -3 -22 -15 -8 -15 -12 -18 -13 -7 0 8 5 20 12 27 15
15 15 15 24 0z m704 2 c0 -5 -2 -10 -4 -10 -3 0 -8 5 -11 10 -3 6 -1 10 4 10
6 0 11 -4 11 -10z m-240 -10 c0 -5 -4 -10 -10 -10 -5 0 -10 5 -10 10 0 6 5 10
10 10 6 0 10 -4 10 -10z m60 -20 c0 -5 -2 -10 -4 -10 -3 0 -8 5 -11 10 -3 6
-1 10 4 10 6 0 11 -4 11 -10z m-575 -10 c3 -5 1 -10 -4 -10 -6 0 -11 5 -11 10
0 6 2 10 4 10 3 0 8 -4 11 -10z m3912 -12 c-3 -8 -6 -5 -6 6 -1 11 2 17 5 13
3 -3 4 -12 1 -19z m-4082 2 c3 -5 1 -10 -4 -10 -6 0 -11 5 -11 10 0 6 2 10 4
10 3 0 8 -4 11 -10z m265 6 c0 -3 -4 -8 -10 -11 -5 -3 -10 -1 -10 4 0 6 5 11
10 11 6 0 10 -2 10 -4z m401 -18 l12 -23 -24 20 c-13 11 -26 21 -28 22 -2 2 3
3 12 3 9 0 22 -10 28 -22z m1679 -13 c0 -8 -4 -15 -10 -15 -5 0 -10 7 -10 15
0 8 5 15 10 15 6 0 10 -7 10 -15z m458 -10 c-3 -3 -9 2 -12 12 -6 14 -5 15 5
6 7 -7 10 -15 7 -18z m-2478 -14 c0 -42 -10 -61 -31 -61 -20 0 -59 -33 -59
-50 0 -5 11 -10 23 -10 31 0 35 -5 29 -35 -3 -20 -7 -23 -22 -15 -27 14 -32
12 -25 -10 8 -24 -20 -29 -29 -5 -3 8 -15 15 -26 15 -12 0 -18 -4 -15 -10 9
-15 -6 -12 -26 6 -16 14 -16 17 5 57 11 23 29 53 39 67 9 13 17 32 17 42 0 19
15 24 25 8 11 -17 50 -11 63 10 18 29 32 25 32 -9z m222 4 c-3 -20 -1 -24 12
-19 11 4 16 1 16 -10 0 -14 -17 -16 -69 -7 -2 1 2 7 8 15 6 8 11 18 10 22 -3
17 1 24 15 24 9 0 12 -8 8 -25z m91 -21 c8 20 23 14 29 -12 4 -15 1 -18 -17
-14 -28 5 -44 -17 -21 -30 9 -5 16 -14 16 -19 0 -6 -3 -8 -7 -6 -5 3 -9 -5
-10 -16 0 -12 -4 -41 -8 -63 -5 -27 -3 -44 4 -48 7 -5 9 -1 5 8 -4 11 0 16 10
16 9 0 16 -3 16 -7 1 -24 18 -35 38 -24 26 14 40 -3 21 -25 -17 -20 5 -35 35
-25 12 3 35 6 51 4 17 -1 123 -2 238 -3 114 -1 220 -5 236 -10 43 -12 102 4
124 34 24 34 53 36 36 4 -6 -13 -8 -20 -4 -16 5 4 14 3 22 -3 15 -13 69 -16
464 -23 284 -5 298 -5 322 14 22 18 25 18 23 2 -1 -13 8 -18 38 -20 48 -4 86
5 86 20 0 6 8 20 18 31 9 10 17 33 17 51 0 25 5 32 23 34 22 3 30 -12 13 -23
-5 -3 -7 -22 -4 -42 6 -33 4 -36 -15 -31 -12 4 -20 3 -17 -2 3 -4 -2 -10 -10
-14 -23 -9 -18 -26 9 -26 13 0 26 7 30 15 3 8 12 15 21 15 15 0 19 10 16 41
-1 8 10 21 24 27 24 11 35 42 15 42 -14 0 -12 16 3 32 7 7 16 21 19 30 4 10
14 15 25 12 21 -6 70 51 53 61 -18 11 -10 25 13 25 28 0 97 -74 97 -105 0 -11
9 -36 19 -55 11 -19 26 -50 35 -69 15 -31 18 -33 51 -27 30 6 35 4 35 -12 0
-11 6 -24 13 -30 20 -16 560 -33 585 -18 6 3 13 2 17 -4 3 -5 39 -10 80 -10
73 0 96 9 108 42 3 9 12 6 29 -10 18 -17 33 -21 54 -18 17 3 34 0 44 -9 11
-10 51 -14 153 -16 80 -2 141 -7 144 -13 10 -15 3 -109 -8 -123 -6 -7 -6 -12
1 -15 14 -4 14 -30 6 -598 -12 -855 -15 -1416 -7 -1428 6 -10 11 -9 21 3 13
16 30 20 30 8 0 -5 -12 -21 -26 -38 -42 -48 -55 -85 -39 -115 7 -14 12 -47 11
-75 l-3 -50 -179 1 c-98 0 -736 2 -1417 4 -681 2 -1240 6 -1242 10 -7 11 -86
11 -99 1 -7 -6 -52 -14 -99 -17 -48 -4 -87 -11 -87 -15 0 -5 -5 -9 -10 -9 -6
0 -9 6 -8 13 5 20 -162 23 -1561 25 -1246 2 -1325 1 -1337 -16 -11 -14 -16
-15 -31 -4 -10 7 -26 15 -35 18 -17 6 -18 74 -15 1224 l2 1218 60 6 c77 7 393
15 856 21 201 3 381 10 399 15 21 6 39 6 51 -1 11 -5 51 -7 96 -3 43 3 87 6
98 6 11 0 79 0 150 0 72 1 162 0 200 0 92 -2 138 6 129 21 -5 9 -3 8 7 0 19
-19 29 -16 30 10 2 22 2 22 6 0 5 -25 30 -38 48 -23 7 6 19 8 28 4 8 -3 18 -1
22 5 3 6 11 11 16 11 6 0 8 -4 5 -9 -6 -10 59 -22 79 -15 7 3 16 15 19 27 5
18 8 19 15 7 7 -10 6 -17 -2 -22 -7 -5 50 -7 125 -6 76 2 138 6 138 11 0 4 -9
7 -21 7 -11 0 -19 5 -17 12 8 22 27 20 53 -6 33 -33 45 -33 45 0 0 17 -5 24
-12 22 -7 -3 -24 5 -38 18 -19 19 -21 24 -8 24 23 0 30 28 13 53 -8 12 -15 29
-15 38 0 23 32 57 49 51 9 -3 6 6 -8 27 -32 44 -15 63 19 21 23 -28 28 -30 33
-16z m101 20 c18 -25 18 -25 -3 -12 -11 7 -23 18 -25 25 -9 22 8 14 28 -13z
m3316 -23 c-11 -23 -27 -41 -35 -41 -10 0 -7 8 10 26 13 14 27 35 31 46 3 11
8 17 11 15 2 -3 -5 -23 -17 -46z m-3877 28 c-6 -6 -9 -18 -6 -25 6 -15 -12
-19 -22 -5 -5 9 20 41 33 41 3 0 1 -5 -5 -11z m262 -39 c-3 -5 -13 -10 -21
-10 -17 0 -18 -11 -1 -30 10 -12 9 -12 -5 -1 -31 23 -21 43 25 50 5 0 5 -3 2
-9z m1932 -12 c-3 -8 -6 -5 -6 6 -1 11 2 17 5 13 3 -3 4 -12 1 -19z m502 0
c10 -28 3 -55 -16 -62 -24 -9 -29 0 -25 43 5 46 27 56 41 19z m-2148 -8 c13
-7 19 -7 19 0 0 5 8 10 18 10 16 -1 16 -1 0 -14 -21 -15 -60 -14 -66 2 -5 15
3 15 29 2z m1823 -6 c3 -8 2 -12 -4 -9 -6 3 -10 10 -10 16 0 14 7 11 14 -7z
m-2484 -4 c0 -5 -4 -10 -10 -10 -5 0 -10 5 -10 10 0 6 5 10 10 10 6 0 10 -4
10 -10z m314 -13 c-5 -14 49 -89 63 -87 4 1 9 -4 12 -11 2 -6 0 -10 -5 -7 -5
2 -21 10 -36 18 -16 7 -28 19 -28 27 0 7 -10 13 -22 13 -17 0 -19 3 -10 12 7
7 12 20 12 30 0 10 4 18 10 18 5 0 7 -6 4 -13z m4094 -12 c2 -25 -11 -34 -22
-16 -7 11 3 41 13 41 4 0 8 -11 9 -25z m-4378 1 c0 -3 -4 -8 -10 -11 -5 -3
-10 -1 -10 4 0 6 5 11 10 11 6 0 10 -2 10 -4z m435 -26 c3 -5 3 -16 -1 -22 -5
-7 -8 -24 -8 -38 -1 -37 -28 -35 -53 4 -19 30 -20 36 -8 46 8 7 22 10 30 6 8
-3 15 -1 15 4 0 13 17 13 25 0z m-195 -4 c0 -11 -19 -15 -25 -6 -3 5 1 10 9
10 9 0 16 -2 16 -4z m2083 -17 c-4 -15 -8 -17 -14 -8 -6 11 4 28 18 29 0 0 -1
-9 -4 -21z m-1688 -3 c10 4 12 0 8 -16 -4 -15 -11 -20 -24 -17 -12 3 -20 -2
-25 -15 -3 -10 -13 -18 -22 -16 -24 5 -19 22 11 36 15 7 27 21 28 30 0 10 3
12 5 5 3 -7 11 -10 19 -7z m2129 -8 c10 -38 7 -48 -14 -48 -20 0 -26 22 -14
54 9 23 21 20 28 -6z m-2744 -38 c13 -8 13 -10 -2 -10 -9 0 -20 5 -23 10 -8
13 5 13 25 0z m-47 -30 c3 -11 1 -20 -4 -20 -5 0 -9 2 -9 4 0 2 -3 11 -6 20
-3 9 -2 16 4 16 5 0 12 -9 15 -20z m-43 -5 c-7 -8 -19 -15 -26 -15 -8 0 -14 7
-14 15 0 10 10 15 26 15 22 0 25 -2 14 -15z m2181 -18 c-10 -9 -11 -8 -5 6 3
10 9 15 12 12 3 -3 0 -11 -7 -18z m-1951 -7 c0 -5 -4 -10 -10 -10 -5 0 -10 5
-10 10 0 6 5 10 10 10 6 0 10 -4 10 -10z m-287 -15 c-3 -9 -8 -14 -10 -11 -3
3 -2 9 2 15 9 16 15 13 8 -4z m-2274 -48 c0 -27 -2 -29 -9 -12 -12 28 -12 57
0 50 6 -3 10 -21 9 -38z m6487 -232 c7 -19 14 -50 14 -70 0 -40 -24 -95 -42
-95 -6 0 -3 9 7 20 25 28 31 99 11 138 -17 33 -19 42 -10 42 3 0 12 -16 20
-35z m-6507 -645 c-8 -21 -8 -40 0 -62 10 -30 9 -31 -4 -14 -18 24 -20 77 -3
94 17 17 18 15 7 -18z m58 -32 c-3 -8 -6 -5 -6 6 -1 11 2 17 5 13 3 -3 4 -12
1 -19z m-29 -506 c3 -26 0 -32 -16 -32 -32 0 -44 23 -26 49 21 29 38 22 42
-17z m52 -202 c0 -5 -5 -10 -11 -10 -5 0 -7 5 -4 10 3 6 8 10 11 10 2 0 4 -4
4 -10z m-35 -46 c-19 -19 -25 -18 -25 6 0 11 5 20 11 20 5 0 7 6 4 13 -4 6 0
4 9 -7 13 -16 13 -21 1 -32z m6669 -232 c2 -4 1 -14 -3 -21 -6 -9 -10 -7 -14
8 -5 20 7 29 17 13z m-6657 -354 c-3 -7 -5 -2 -5 12 0 14 2 19 5 13 2 -7 2
-19 0 -25z m6503 -13 c0 -5 -5 -3 -10 5 -5 8 -10 20 -10 25 0 6 5 3 10 -5 5
-8 10 -19 10 -25z m-5 -112 c-9 -24 -26 -48 -38 -55 -19 -10 -19 -8 4 20 17
19 29 50 34 84 7 42 10 47 13 24 2 -16 -4 -49 -13 -73z m135 -77 c0 -3 7 -58
15 -122 14 -105 14 -136 0 -123 -9 9 -34 124 -40 187 -6 53 -5 62 9 62 9 0 16
-2 16 -4z m-2830 -52 c0 -9 -28 -34 -38 -34 -13 0 -64 -61 -57 -68 3 -3 16 1
30 8 38 20 39 8 3 -33 -20 -22 -46 -40 -64 -43 -28 -5 -32 -3 -37 22 -6 33 11
68 49 104 34 32 114 63 114 44z m-1095 -34 c3 -5 2 -10 -4 -10 -5 0 -13 5 -16
10 -3 6 -2 10 4 10 5 0 13 -4 16 -10z m85 -56 c0 -2 -9 -4 -21 -4 -11 0 -18 4
-14 10 5 8 35 3 35 -6z m1178 -35 c17 -26 11 -32 -22 -23 -17 4 -26 13 -26 25
0 26 32 24 48 -2z m-3508 -361 c-34 -57 -22 -149 27 -200 19 -20 22 -28 11
-28 -36 0 -78 83 -78 154 0 33 7 52 26 75 33 40 39 39 14 -1z m2868 -26 c2 -7
-5 -7 -22 1 -14 7 -26 15 -26 19 0 11 43 -7 48 -20z m-228 -2 c0 -5 -4 -10
-10 -10 -5 0 -10 5 -10 10 0 6 5 10 10 10 6 0 10 -4 10 -10z m100 -15 c0 -8
-2 -15 -4 -15 -2 0 -6 7 -10 15 -3 8 -1 15 4 15 6 0 10 -7 10 -15z m-200 -34
c0 -14 -18 -23 -30 -16 -6 4 -8 11 -5 16 8 12 35 12 35 0z m356 -34 c7 -7 15
-22 18 -34 6 -18 3 -20 -13 -16 -11 3 -19 8 -18 12 1 4 -11 20 -28 35 l-30 27
30 -6 c17 -3 35 -12 41 -18z m-211 -18 c-10 -15 -25 -10 -19 6 4 8 10 12 15 9
5 -3 7 -10 4 -15z m-55 1 c0 -5 -4 -10 -10 -10 -5 0 -10 5 -10 10 0 6 5 10 10
10 6 0 10 -4 10 -10z m-2753 -42 c-3 -8 -6 -5 -6 6 -1 11 2 17 5 13 3 -3 4
-12 1 -19z m2979 6 c-3 -9 -6 -21 -6 -27 0 -8 -3 -8 -11 0 -13 13 -5 43 12 43
6 0 8 -7 5 -16z m-186 -54 c0 -11 -4 -20 -10 -20 -5 0 -10 2 -10 4 0 2 -3 11
-6 20 -4 11 -1 16 10 16 9 0 16 -8 16 -20z m-2565 0 c-3 -5 -11 -10 -16 -10
-6 0 -7 5 -4 10 3 6 11 10 16 10 6 0 7 -4 4 -10z m2803 -70 c-11 -18 -28 -27
-28 -16 0 16 14 36 26 36 12 0 12 -4 2 -20z m-68 -19 c0 -6 -4 -13 -10 -16 -5
-3 -10 1 -10 9 0 9 5 16 10 16 6 0 10 -4 10 -9z m-770 -91 c0 -11 -4 -20 -10
-20 -5 0 -10 2 -10 4 0 2 -3 11 -6 20 -4 11 -1 16 10 16 9 0 16 -8 16 -20z
m-2399 -50 c5 0 9 -18 9 -40 0 -36 -3 -40 -24 -40 -28 0 -41 28 -31 67 4 17
11 23 21 19 9 -3 20 -6 25 -6z m3941 -35 c-2 -19 -9 -35 -14 -35 -6 0 -8 10
-4 23 3 12 6 28 6 35 0 6 4 12 8 12 4 0 6 -16 4 -35z m68 5 c0 -5 -4 -10 -10
-10 -5 0 -10 5 -10 10 0 6 5 10 10 10 6 0 10 -4 10 -10z m-3941 -377 c0 -29
-2 -33 -8 -18 -7 18 -4 55 5 55 2 0 4 -17 3 -37z m6330 -11 c-1 -44 -13 -80
-22 -65 -9 15 4 114 14 107 5 -3 9 -22 8 -42z m-3796 3 c1 -5 -6 -11 -15 -13
-11 -2 -18 3 -18 13 0 17 30 18 33 0z m-2606 -74 c3 -24 2 -41 -4 -41 -11 0
-23 46 -23 83 0 36 21 3 27 -42z m360 -288 c-3 -10 -5 -4 -5 12 0 17 2 24 5
18 2 -7 2 -21 0 -30z m5806 -28 c-3 -9 -8 -14 -10 -11 -3 3 -2 9 2 15 9 16 15
13 8 -4z m-2137 -57 c9 -13 8 -375 0 -568 -4 -74 -11 -238 -16 -365 -6 -126
-12 -243 -15 -260 -2 -16 -8 -58 -11 -93 -4 -35 -13 -69 -20 -77 -7 -7 -10
-15 -7 -19 4 -3 2 -6 -4 -6 -10 0 -25 67 -23 100 1 23 1 53 -1 70 -1 8 -1 66
-1 128 2 92 5 112 17 112 19 0 20 16 1 23 -11 4 -13 23 -10 84 2 43 9 210 15
371 5 162 15 305 20 320 6 14 6 29 1 34 -5 5 -3 31 5 61 7 28 13 62 13 74 0
24 24 32 36 11z m-1840 -202 c9 -50 17 -125 19 -166 2 -41 9 -151 15 -245 35
-569 41 -878 16 -903 -13 -13 -15 -13 -20 9 -25 106 -48 350 -66 704 -6 116
-13 222 -15 236 -3 23 0 28 25 33 21 4 31 13 36 31 7 30 -7 51 -41 59 -24 6
-25 10 -26 84 -4 179 -1 278 9 296 10 19 34 -50 48 -138z m906 24 c0 -14 4
-27 8 -30 13 -8 23 -109 35 -360 7 -148 7 -471 0 -478 -7 -7 -6 -57 1 -65 4
-3 5 -57 4 -119 -3 -131 -3 -173 -1 -248 1 -46 -6 -201 -12 -262 -2 -20 -12
-23 -23 -7 -3 6 -18 9 -33 7 -26 -4 -26 -3 -29 70 -3 80 -14 112 -37 112 -25
0 -17 20 13 33 15 6 30 16 34 22 12 16 9 55 -3 52 -6 -1 -13 9 -16 23 -8 40
-8 1141 0 1185 13 76 19 95 25 94 21 -3 23 3 8 20 -10 11 -14 25 -10 36 5 13
10 8 21 -22 8 -21 14 -49 15 -63z m-481 -31 c14 -106 17 -133 23 -234 11 -190
10 -222 -7 -240 -22 -22 -21 -39 2 -56 17 -13 20 -33 25 -199 3 -102 9 -260
13 -352 l6 -166 26 -13 26 -13 -26 -4 c-23 -3 -27 -9 -33 -49 -3 -25 -6 -88
-6 -139 0 -92 0 -94 -24 -94 -28 0 -28 0 -51 236 -22 225 -22 218 -29 519 -3
149 -8 313 -12 366 l-6 96 30 6 c16 3 32 13 36 22 9 26 -21 75 -47 75 -20 0
-22 5 -22 65 0 36 3 65 8 65 10 0 9 38 -3 45 -5 3 -7 11 -5 18 2 7 6 37 9 68
3 30 8 63 12 73 6 17 8 16 26 -2 13 -13 23 -43 29 -93z m994 -9 c3 -5 1 -10
-4 -10 -6 0 -11 -5 -11 -10 0 -7 6 -7 20 0 18 10 20 8 20 -19 0 -16 6 -32 13
-34 6 -3 0 -6 -14 -6 -36 -1 -52 -23 -44 -60 5 -22 14 -31 35 -36 16 -3 27
-12 25 -18 -2 -7 -6 -167 -10 -357 -4 -248 -10 -347 -18 -353 -7 -5 -8 -10 -2
-13 6 -2 9 -30 8 -62 -1 -31 -4 -92 -6 -135 -1 -43 0 -80 4 -82 6 -5 -3 -74
-21 -153 -6 -23 -10 -63 -10 -89 0 -37 -3 -44 -12 -35 -7 7 -20 12 -30 12 -18
0 -19 5 -23 70 -2 25 1 29 17 25 12 -4 20 0 25 10 8 22 -17 38 -35 22 -26 -21
0 1067 28 1197 5 21 7 47 5 57 -2 11 0 19 4 19 4 0 8 6 9 13 5 57 12 71 27 47z
m-3476 -65 c3 -6 -2 -2 -11 8 -10 11 -18 29 -17 41 0 17 3 15 11 -9 6 -16 13
-35 17 -40z m81 -685 c0 -5 -2 -10 -4 -10 -3 0 -8 5 -11 10 -3 6 -1 10 4 10 6
0 11 -4 11 -10z m40 -49 c5 -11 10 -28 10 -37 0 -16 -2 -16 -14 -4 -19 20 -30
60 -17 60 6 0 15 -9 21 -19z m28 -122 c-3 -33 -3 -34 -16 -11 -7 12 -10 32 -7
43 10 32 27 8 23 -32z m-5 -100 c-3 -11 -9 -22 -14 -25 -10 -6 -12 27 -3 51 9
23 23 0 17 -26z m-66 -441 c-3 -8 -6 -5 -6 6 -1 11 2 17 5 13 3 -3 4 -12 1
-19z m3361 -64 c-13 -13 -20 -14 -34 -5 -17 11 -17 11 3 6 12 -3 24 -1 28 5 3
5 9 10 13 10 3 0 -1 -7 -10 -16z m-453 -114 c-3 -5 -18 -10 -33 -9 l-27 1 25
8 c35 11 42 11 35 0z m-2843 -300 c-3 -29 1 -47 13 -60 10 -11 13 -20 8 -20
-27 0 -47 59 -33 96 13 34 16 30 12 -16z m205 -502 c-3 -7 -5 -2 -5 12 0 14 2
19 5 13 2 -7 2 -19 0 -25z m5660 -34 c-9 -9 -28 6 -21 18 4 6 10 6 17 -1 6 -6
8 -13 4 -17z m-5618 -13 c-6 -2 -18 4 -27 13 -15 15 -15 15 10 4 15 -7 23 -15
17 -17z m3319 -53 c-5 -15 -55 -35 -64 -25 -4 4 -1 13 6 22 15 18 64 21 58 3z
m-1417 -8 c24 -14 25 -30 0 -30 -30 0 -51 11 -51 26 0 17 24 18 51 4z m704
-13 c10 -8 15 -19 12 -24 -11 -18 -45 -22 -64 -7 -17 13 -17 15 1 29 24 18 27
18 51 2z m373 -4 c-4 -19 -30 -28 -55 -19 -23 9 3 36 34 36 18 0 24 -5 21 -17z
m-730 -15 c4 -23 -40 -25 -62 -2 -23 23 -20 26 21 22 27 -2 39 -8 41 -20z
m357 -138 l20 -9 -20 0 c-11 0 -27 4 -35 9 -13 9 -13 10 0 9 8 0 24 -4 35 -9z
m-252 -30 c7 0 4 -5 -6 -11 -18 -11 -37 -5 -37 13 0 5 7 7 16 4 9 -3 21 -6 27
-6z m-53 -80 c-8 -5 -22 -9 -30 -9 -10 0 -8 3 5 9 27 12 43 12 25 0z m-90 -30
c-20 -13 -43 -13 -35 0 3 6 16 10 28 10 18 0 19 -2 7 -10z m-1980 -61 c25 -3
29 -4 36 -11 4 -5 -2 -8 -14 -8 -23 0 -62 44 -62 69 1 9 7 1 15 -16 8 -18 19
-34 25 -34z m1894 -7 c-4 -9 -7 -20 -6 -24 1 -3 -5 -12 -13 -18 -12 -10 -15
-9 -15 4 0 9 -6 16 -12 16 -7 0 -14 12 -15 26 -1 19 2 23 10 15 17 -17 47 -13
48 7 0 10 2 12 6 4 3 -7 1 -20 -3 -30z m613 -18 c-3 -3 -12 -4 -19 -1 -8 3 -5
6 6 6 11 1 17 -2 13 -5z m-857 -14 c-36 -11 -50 -11 -50 0 0 6 17 10 38 9 33
-1 34 -2 12 -9z m234 -58 c2 -4 1 -13 -3 -20 -4 -8 -11 -5 -19 8 -10 16 -10
20 2 20 8 0 17 -4 20 -8z m74 -87 c-56 -18 -79 1 -69 58 0 4 24 -5 51 -20 l50
-27 -32 -11z m112 -12 c22 -10 40 -21 40 -25 0 -10 -8 -10 -53 3 -28 8 -42 7
-53 -2 -11 -9 -17 -9 -29 1 -8 7 -15 18 -14 24 0 7 2 6 6 -1 7 -18 40 -16 47
2 7 19 7 19 56 -2z m-1155 -13 c-3 -5 -15 -10 -26 -10 -11 0 -17 5 -14 10 3 6
15 10 26 10 11 0 17 -4 14 -10z m2942 4 c-3 -3 -12 -4 -19 -1 -8 3 -5 6 6 6
11 1 17 -2 13 -5z m978 -4 c-3 -5 -11 -10 -16 -10 -6 0 -7 5 -4 10 3 6 11 10
16 10 6 0 7 -4 4 -10z m-2645 -30 c0 -5 -2 -10 -4 -10 -3 0 -8 5 -11 10 -3 6
-1 10 4 10 6 0 11 -4 11 -10z m366 -10 c18 0 35 5 37 10 3 6 4 5 3 -2 -7 -35
-83 -34 -94 2 -4 12 -2 13 9 3 7 -7 27 -13 45 -13z m1469 0 c8 -13 -5 -13 -25
0 -13 8 -13 10 2 10 9 0 20 -4 23 -10z m820 -20 c-10 -11 -25 -20 -34 -19 -11
0 -9 3 5 9 12 5 25 13 29 19 3 6 9 11 12 11 3 0 -2 -9 -12 -20z m-3151 -2
c-15 -7 -28 -7 -40 1 -16 9 -12 10 21 10 35 0 37 -2 19 -11z m505 -18 c-13 -9
-39 -2 -39 10 0 4 12 5 26 2 17 -3 22 -7 13 -12z m1928 -36 c-3 -3 -12 -4 -19
-1 -8 3 -5 6 6 6 11 1 17 -2 13 -5z m-264 -16 c-6 -11 -55 -9 -73 2 -11 8 -2
10 32 8 25 -2 44 -6 41 -10z m-2408 -28 c-5 -15 -2 -20 10 -20 11 0 15 5 11
15 -6 17 4 18 59 5 22 -5 64 -12 94 -16 30 -3 69 -12 87 -20 18 -8 41 -14 49
-14 15 0 15 2 1 22 -21 30 -20 45 2 26 10 -9 37 -16 66 -17 27 0 51 -3 54 -5
2 -3 14 0 26 6 16 8 15 4 -8 -20 -25 -27 -27 -32 -12 -38 9 -4 20 -4 23 0 3 3
12 1 20 -5 7 -7 28 -9 47 -6 24 4 39 1 47 -9 6 -8 18 -14 27 -14 13 0 13 2 0
18 -8 9 -19 24 -23 32 -8 13 -6 13 8 1 10 -8 33 -12 57 -9 42 4 48 0 28 -20
-24 -24 26 -29 257 -23 55 2 80 -1 90 -9 6 -4 43 -7 83 -6 39 1 72 -1 72 -4 1
-16 19 -30 33 -24 19 7 24 25 6 21 -6 -1 -13 3 -16 9 -5 14 21 21 102 30 52 5
57 4 47 -9 -11 -13 -8 -14 30 -5 24 5 54 12 67 14 14 3 28 7 33 10 4 3 8 0 8
-5 0 -6 18 -11 40 -11 22 0 40 5 40 11 0 5 4 8 9 5 4 -3 50 0 102 8 52 7 151
12 222 11 125 -2 128 -2 156 -29 18 -17 27 -34 24 -43 -4 -11 -1 -14 13 -11
21 5 94 -63 94 -87 0 -9 -21 -18 -57 -24 -54 -11 -151 -54 -164 -73 -3 -5 -18
-10 -33 -12 -15 -1 -34 -13 -43 -26 -13 -19 -22 -22 -60 -17 -33 3 -46 1 -50
-10 -4 -9 -16 -13 -35 -11 -17 2 -29 -1 -29 -7 2 -17 50 -24 104 -14 111 21
142 22 155 6 11 -12 8 -19 -15 -36 -15 -11 -33 -25 -40 -31 -7 -5 -17 -10 -23
-10 -5 0 -10 -4 -10 -10 0 -15 31 -12 49 4 11 10 21 12 31 6 20 -12 11 -19
-46 -35 -87 -25 -148 -46 -183 -63 -34 -17 -178 -25 -186 -11 -3 3 -21 3 -42
-1 -21 -3 -66 -1 -101 6 -58 10 -64 9 -73 -7 -13 -26 -39 -24 -39 2 0 14 -5
19 -15 16 -8 -4 -16 -3 -19 1 -5 9 -384 8 -450 -2 -27 -3 -54 -10 -60 -13 -6
-4 -27 -8 -46 -9 -19 -1 -67 -7 -105 -13 -39 -7 -93 -14 -120 -16 -28 -2 -62
-7 -77 -10 -32 -8 -193 12 -222 27 -11 6 -54 14 -94 18 -81 8 -103 20 -82 45
7 8 21 15 31 15 10 0 23 9 29 21 11 19 9 20 -25 15 -21 -4 -41 -9 -45 -11 -5
-3 -11 -1 -15 5 -3 5 -27 10 -53 10 -26 0 -54 5 -62 11 -11 7 -5 8 21 3 29 -4
39 -2 47 12 8 15 14 16 53 5 24 -7 67 -15 94 -18 l50 -5 -19 21 c-12 13 -31
21 -50 21 -28 0 -29 1 -11 13 11 7 43 13 70 12 28 0 53 4 56 8 4 5 7 -3 7 -17
0 -22 -4 -25 -24 -20 -18 5 -24 2 -24 -10 0 -19 -4 -19 60 -5 37 8 50 15 46
25 -3 8 1 14 9 14 8 0 15 -4 15 -8 0 -13 130 12 139 27 7 10 13 10 29 2 31
-16 50 -13 76 12 23 22 56 32 56 16 0 -17 91 -1 106 18 9 13 13 14 14 4 0 -11
3 -11 16 0 13 11 13 14 0 21 -25 14 -244 14 -258 0 -18 -18 -39 -15 -36 6 2
13 -3 17 -22 15 -14 -1 -47 2 -75 8 -27 5 -95 13 -150 19 -55 6 -111 13 -125
16 -24 5 -24 5 -5 -15 13 -15 21 -18 26 -10 9 15 29 3 29 -18 0 -9 -6 -13 -15
-9 -8 3 -15 1 -15 -3 0 -15 -43 0 -70 24 -40 35 -95 65 -121 65 -31 0 -14 -16
36 -33 50 -18 55 -32 10 -35 -29 -2 -42 4 -74 36 -43 45 -63 57 -108 65 -35 7
-42 -3 -18 -23 8 -7 15 -17 15 -22 0 -12 -51 -1 -65 14 -7 8 -5 9 7 5 10 -3
20 -2 23 3 7 11 -43 50 -64 50 -10 0 -26 7 -37 15 -10 8 -32 15 -48 15 -28 0
-29 0 -11 20 19 21 50 26 60 10 10 -16 47 -11 100 15 28 14 58 25 67 25 9 0
19 4 22 9 14 23 136 81 170 81 19 0 38 5 41 10 11 17 17 11 10 -10z m-645 0
c0 -5 -7 -7 -15 -4 -8 4 -15 8 -15 10 0 2 7 4 15 4 8 0 15 -4 15 -10z m2445
-10 c-21 -23 -38 -25 -68 -7 -20 11 -18 12 28 18 28 3 52 7 54 7 2 1 -4 -7
-14 -18z m750 -20 c-3 -5 -17 -10 -31 -10 -13 0 -24 5 -24 10 0 6 14 10 31 10
17 0 28 -4 24 -10z m-1230 -10 c-3 -5 -12 -7 -20 -3 -21 7 -19 13 6 13 11 0
18 -4 14 -10z m972 -6 c-3 -3 -12 -4 -19 -1 -8 3 -5 6 6 6 11 1 17 -2 13 -5z
m-2980 -86 c-3 -8 -6 -5 -6 6 -1 11 2 17 5 13 3 -3 4 -12 1 -19z m2969 -112
c-14 -19 -26 -42 -26 -51 0 -14 -36 -35 -61 -35 -21 0 -5 27 34 59 31 25 36
33 20 29 -17 -5 -23 -2 -23 10 0 13 11 18 41 20 l42 3 -27 -35z m351 -2 c-3
-3 -12 -4 -19 -1 -8 3 -5 6 6 6 11 1 17 -2 13 -5z m-114 -51 c-7 -2 -19 -2
-25 0 -7 3 -2 5 12 5 14 0 19 -2 13 -5z m-2293 -63 c0 -15 -5 -12 -26 11 -19
22 -19 22 4 10 12 -6 22 -16 22 -21z m-494 -16 c44 -34 43 -44 -4 -44 -43 0
-79 29 -69 55 9 22 34 18 73 -11z m154 -34 c0 -14 -15 -12 -55 4 -33 14 -42
26 -29 38 7 8 84 -30 84 -42z m2350 36 c0 -3 -4 -8 -10 -11 -5 -3 -10 -1 -10
4 0 6 5 11 10 11 6 0 10 -2 10 -4z m-102 -52 c-11 -11 -23 -14 -35 -9 -15 7
-13 9 12 15 17 4 32 8 35 9 2 0 -3 -6 -12 -15z m-227 -144 c-25 -21 -61 -27
-61 -10 0 6 13 10 29 10 17 0 33 5 36 10 3 6 9 10 13 10 4 -1 -4 -10 -17 -20z
m-904 -66 c-3 -3 -12 -4 -19 -1 -8 3 -5 6 6 6 11 1 17 -2 13 -5z m520 0 c-3
-3 -12 -4 -19 -1 -8 3 -5 6 6 6 11 1 17 -2 13 -5z m63 -14 c0 -5 -10 -10 -22
-9 -22 0 -22 1 -3 9 11 5 21 9 23 9 1 1 2 -3 2 -9z m-347 -17 c-7 -2 -21 -2
-30 0 -10 3 -4 5 12 5 17 0 24 -2 18 -5z m439 -5 c-9 -9 -15 -9 -24 0 -9 9 -7
12 12 12 19 0 21 -3 12 -12z m-125 -4 c-3 -3 -12 -4 -19 -1 -8 3 -5 6 6 6 11
1 17 -2 13 -5z m444 -12 c-13 -2 -27 0 -32 5 -6 6 3 7 23 4 28 -4 29 -6 9 -9z
m-1433 -21 c7 -1 10 -5 7 -11 -9 -15 -61 -12 -74 4 -9 11 -6 13 21 11 18 -2
39 -3 46 -4z"/>
<path d="M5340 15131 c0 -6 5 -13 10 -16 6 -3 10 1 10 9 0 9 -4 16 -10 16 -5
0 -10 -4 -10 -9z"/>
<path d="M5406 15132 c-3 -3 -6 -14 -6 -24 0 -24 43 -21 48 3 3 16 -31 33 -42
21z"/>
<path d="M5399 13350 c0 -3 -2 -13 -4 -22 -2 -10 1 -18 5 -18 15 0 19 15 9 30
-5 8 -9 13 -10 10z"/>
<path d="M4680 15060 c0 -5 5 -10 10 -10 6 0 10 5 10 10 0 6 -4 10 -10 10 -5
0 -10 -4 -10 -10z"/>
<path d="M4680 13856 c0 -8 4 -17 9 -20 11 -7 33 18 24 27 -12 12 -33 7 -33
-7z"/>
<path d="M4670 13245 c0 -8 7 -15 15 -15 8 0 15 7 15 15 0 8 -7 15 -15 15 -8
0 -15 -7 -15 -15z"/>
<path d="M6106 14553 c-12 -12 -6 -33 9 -33 8 0 15 6 15 14 0 17 -14 28 -24
19z"/>
<path d="M6050 14130 c0 -5 5 -10 10 -10 6 0 10 5 10 10 0 6 -4 10 -10 10 -5
0 -10 -4 -10 -10z"/>
<path d="M3570 15029 c0 -5 5 -7 10 -4 6 3 10 8 10 11 0 2 -4 4 -10 4 -5 0
-10 -5 -10 -11z"/>
<path d="M4160 13579 c0 -5 5 -7 10 -4 6 3 10 8 10 11 0 2 -4 4 -10 4 -5 0
-10 -5 -10 -11z"/>
<path d="M6665 13110 c3 -5 8 -10 11 -10 2 0 4 5 4 10 0 6 -5 10 -11 10 -5 0
-7 -4 -4 -10z"/>
<path d="M6575 12459 c-8 -24 8 -39 43 -39 27 0 39 24 22 45 -19 23 -57 19
-65 -6z"/>
<path d="M5072 10603 c-8 -14 -9 -24 -2 -28 12 -7 24 18 18 37 -3 8 -9 5 -16
-9z"/>
<path d="M7176 10578 c-9 -48 -9 -52 3 -56 6 -2 8 3 5 11 -3 8 -1 18 5 22 13
8 15 55 2 55 -5 0 -12 -15 -15 -32z"/>
<path d="M5130 10530 c0 -14 26 -23 41 -15 8 6 7 10 -2 16 -19 12 -39 11 -39
-1z"/>
<path d="M7247 10499 c7 -7 15 -10 18 -7 3 3 -2 9 -12 12 -14 6 -15 5 -6 -5z"/>
<path d="M5260 10060 c-28 -7 -30 -14 -10 -52 16 -34 30 -35 60 -4 36 40 9 71
-50 56z"/>
<path d="M3983 10053 c32 -2 81 -2 110 0 29 2 3 3 -58 3 -60 0 -84 -1 -52 -3z"/>
<path d="M4413 10053 c59 -2 154 -2 210 0 56 1 8 3 -108 3 -115 0 -161 -2
-102 -3z"/>
<path d="M3336 10041 c-27 -3 -51 -11 -53 -18 -5 -13 57 -8 92 8 11 5 76 10
145 12 l125 3 -130 0 c-71 1 -152 -2 -179 -5z"/>
<path d="M4255 10040 l-40 -7 37 -2 c20 0 40 4 43 9 3 6 5 9 3 9 -2 -1 -21 -5
-43 -9z"/>
<path d="M7438 10033 c12 -2 30 -2 40 0 9 3 -1 5 -23 4 -22 0 -30 -2 -17 -4z"/>
<path d="M7608 10033 c39 -2 105 -2 145 0 39 1 7 3 -73 3 -80 0 -112 -2 -72
-3z"/>
<path d="M7055 10019 c-4 -6 -4 -13 -1 -16 3 -4 6 -1 6 5 0 6 8 13 18 15 15 4
15 5 0 6 -9 0 -20 -4 -23 -10z"/>
<path d="M7928 10023 c6 -2 18 -2 25 0 6 3 1 5 -13 5 -14 0 -19 -2 -12 -5z"/>
<path d="M4211 10004 c0 -11 3 -14 6 -6 3 7 2 16 -1 19 -3 4 -6 -2 -5 -13z"/>
<path d="M3287 9983 c-5 -9 -77 -324 -77 -338 0 -5 4 -5 9 1 5 5 17 44 25 86
9 43 25 117 36 164 18 78 21 110 7 87z"/>
<path d="M4196 9944 c-4 -20 -5 -38 -3 -40 3 -3 8 11 11 32 4 20 5 38 3 40 -3
3 -8 -11 -11 -32z"/>
<path d="M7041 9964 c0 -11 3 -14 6 -6 3 7 2 16 -1 19 -3 4 -6 -2 -5 -13z"/>
<path d="M7951 9934 c0 -11 3 -14 6 -6 3 7 2 16 -1 19 -3 4 -6 -2 -5 -13z"/>
<path d="M7026 9913 c-6 -14 -5 -15 5 -6 7 7 10 15 7 18 -3 3 -9 -2 -12 -12z"/>
<path d="M3070 9871 c0 -12 5 -21 10 -21 6 0 10 6 10 14 0 8 -4 18 -10 21 -5
3 -10 -3 -10 -14z"/>
<path d="M4181 9874 c0 -11 3 -14 6 -6 3 7 2 16 -1 19 -3 4 -6 -2 -5 -13z"/>
<path d="M4172 9830 c0 -14 2 -19 5 -12 2 6 2 18 0 25 -3 6 -5 1 -5 -13z"/>
<path d="M7005 9830 c-3 -5 -1 -10 4 -10 6 0 11 5 11 10 0 6 -2 10 -4 10 -3 0
-8 -4 -11 -10z"/>
<path d="M4161 9784 c0 -11 3 -14 6 -6 3 7 2 16 -1 19 -3 4 -6 -2 -5 -13z"/>
<path d="M4040 9757 c0 -13 -15 -17 -87 -20 l-88 -3 88 -2 c71 -2 89 1 94 13
3 9 3 19 -1 22 -3 4 -6 -1 -6 -10z"/>
<path d="M7911 9754 c0 -11 3 -14 6 -6 3 7 2 16 -1 19 -3 4 -6 -2 -5 -13z"/>
<path d="M4146 9724 c-4 -20 -5 -38 -3 -40 3 -3 8 11 11 32 4 20 5 38 3 40 -3
3 -8 -11 -11 -32z"/>
<path d="M6991 9749 c-1 -9 7 -23 17 -30 15 -12 16 -12 6 1 -6 8 -14 22 -17
30 -5 13 -6 12 -6 -1z"/>
<path d="M3758 9733 c6 -2 18 -2 25 0 6 3 1 5 -13 5 -14 0 -19 -2 -12 -5z"/>
<path d="M4593 9733 c9 -2 25 -2 35 0 9 3 1 5 -18 5 -19 0 -27 -2 -17 -5z"/>
<path d="M4658 9733 c7 -3 16 -2 19 1 4 3 -2 6 -13 5 -11 0 -14 -3 -6 -6z"/>
<path d="M7860 9725 c0 -12 -18 -15 -104 -15 -58 0 -107 -3 -109 -7 -3 -5 42
-8 100 -8 98 0 107 2 120 23 10 14 11 22 4 22 -6 0 -11 -7 -11 -15z"/>
<path d="M3637 9723 c-4 -3 -7 -15 -7 -25 0 -16 9 -18 108 -16 l107 2 -104 3
c-97 4 -103 5 -98 23 5 21 4 24 -6 13z"/>
<path d="M7242 9685 c0 -16 2 -22 5 -12 2 9 2 23 0 30 -3 6 -5 -1 -5 -18z"/>
<path d="M3913 9683 c26 -2 68 -2 95 0 26 2 4 3 -48 3 -52 0 -74 -1 -47 -3z"/>
<path d="M4126 9634 c-4 -20 -5 -38 -3 -40 3 -3 8 11 11 32 4 20 5 38 3 40 -3
3 -8 -11 -11 -32z"/>
<path d="M6824 9648 l-19 -23 23 19 c21 18 27 26 19 26 -2 0 -12 -10 -23 -22z"/>
<path d="M6746 9647 c10 -26 54 -48 54 -27 0 6 -5 10 -12 10 -6 0 -20 8 -30
17 -18 16 -18 16 -12 0z"/>
<path d="M7231 9634 c0 -11 3 -14 6 -6 3 7 2 16 -1 19 -3 4 -6 -2 -5 -13z"/>
<path d="M3189 9606 c-9 -18 -9 -30 -2 -37 7 -7 12 0 17 22 8 41 0 49 -15 15z"/>
<path d="M7222 9590 c0 -14 2 -19 5 -12 2 6 2 18 0 25 -3 6 -5 1 -5 -13z"/>
<path d="M4111 9564 c0 -11 3 -14 6 -6 3 7 2 16 -1 19 -3 4 -6 -2 -5 -13z"/>
<path d="M3187 9543 c-2 -4 -30 -126 -62 -270 -47 -215 -55 -265 -45 -278 10
-12 42 -15 176 -15 151 0 164 1 174 19 5 11 20 21 32 23 12 2 23 9 24 16 1 7
0 8 -3 2 -2 -5 -15 -10 -28 -10 -13 0 -28 -6 -32 -14 -9 -15 -94 -21 -250 -18
-72 2 -83 4 -83 20 0 9 25 131 56 270 48 222 59 286 41 255z"/>
<path d="M4091 9481 c-7 -35 -15 -70 -17 -80 -5 -13 -4 -14 4 -1 13 21 35 117
30 132 -3 7 -10 -16 -17 -51z"/>
<path d="M6226 9445 c4 -8 11 -15 16 -15 6 0 5 6 -2 15 -7 8 -14 15 -16 15 -2
0 -1 -7 2 -15z"/>
<path d="M7171 9364 c0 -11 3 -14 6 -6 3 7 2 16 -1 19 -3 4 -6 -2 -5 -13z"/>
<path d="M2780 9359 c0 -5 5 -7 10 -4 6 3 10 8 10 11 0 2 -4 4 -10 4 -5 0 -10
-5 -10 -11z"/>
<path d="M3553 9355 c-3 -9 -3 -19 1 -22 3 -4 6 1 6 10 0 15 22 17 193 20
l192 2 -193 3 c-166 2 -193 0 -199 -13z"/>
<path d="M4051 9299 c-7 -33 -10 -63 -8 -65 2 -3 10 23 16 57 7 33 10 63 8 65
-2 3 -10 -23 -16 -57z"/>
<path d="M7152 9270 c0 -14 2 -19 5 -12 2 6 2 18 0 25 -3 6 -5 1 -5 -13z"/>
<path d="M3531 9254 c0 -11 3 -14 6 -6 3 7 2 16 -1 19 -3 4 -6 -2 -5 -13z"/>
<path d="M4502 9250 c0 -14 2 -19 5 -12 2 6 2 18 0 25 -3 6 -5 1 -5 -13z"/>
<path d="M3521 9214 c0 -11 3 -14 6 -6 3 7 2 16 -1 19 -3 4 -6 -2 -5 -13z"/>
<path d="M4021 9164 c-7 -30 -11 -57 -8 -60 2 -2 9 21 16 52 7 30 11 57 8 60
-2 2 -9 -21 -16 -52z"/>
<path d="M5950 9200 c-6 -11 -7 -20 -2 -20 6 0 12 9 15 20 3 11 3 20 1 20 -2
0 -8 -9 -14 -20z"/>
<path d="M7131 9184 c0 -11 3 -14 6 -6 3 7 2 16 -1 19 -3 4 -6 -2 -5 -13z"/>
<path d="M4522 9150 c0 -14 2 -19 5 -12 2 6 2 18 0 25 -3 6 -5 1 -5 -13z"/>
<path d="M5960 9167 c0 -2 15 -16 33 -33 l32 -29 -29 33 c-28 30 -36 37 -36
29z"/>
<path d="M3501 9124 c0 -11 3 -14 6 -6 3 7 2 16 -1 19 -3 4 -6 -2 -5 -13z"/>
<path d="M3996 9059 c-8 -43 -8 -46 10 -63 17 -18 76 -20 237 -9 86 5 99 9
108 27 9 19 9 20 -4 3 -13 -16 -32 -17 -178 -15 l-164 3 3 43 c3 49 -3 55 -12
11z"/>
<path d="M4541 9054 c0 -11 3 -14 6 -6 3 7 2 16 -1 19 -3 4 -6 -2 -5 -13z"/>
<path d="M7101 9044 c0 -11 3 -14 6 -6 3 7 2 16 -1 19 -3 4 -6 -2 -5 -13z"/>
<path d="M4553 9010 c3 -12 26 -15 128 -16 l124 0 -120 3 c-79 3 -122 8 -128
16 -6 9 -7 8 -4 -3z"/>
<path d="M7440 9000 c-10 -18 -22 -20 -128 -22 l-117 -2 105 -4 c117 -3 150 2
150 22 0 8 8 17 18 19 16 4 16 5 0 6 -10 0 -22 -8 -28 -19z"/>
<path d="M5345 9000 c-8 -13 15 -24 27 -12 6 6 4 11 -6 15 -8 3 -18 2 -21 -3z"/>
<path d="M7107 8989 c7 -7 15 -10 18 -7 3 3 -2 9 -12 12 -14 6 -15 5 -6 -5z"/>
<path d="M6448 8963 c18 -2 45 -2 60 0 15 2 0 4 -33 4 -33 0 -45 -2 -27 -4z"/>
<path d="M5600 8780 c0 -5 7 -10 15 -10 8 0 15 5 15 10 0 6 -7 10 -15 10 -8 0
-15 -4 -15 -10z"/>
<path d="M2511 8491 c-7 -5 -11 -15 -9 -22 3 -10 8 -7 17 9 13 24 12 26 -8 13z"/>
<path d="M2502 8418 c3 -7 13 -15 22 -16 12 -3 17 1 14 10 -3 7 -13 15 -22 16
-12 3 -17 -1 -14 -10z"/>
<path d="M5577 8384 c-9 -10 2 -24 19 -24 8 0 14 7 14 15 0 15 -21 21 -33 9z"/>
<path d="M2564 8325 c-9 -22 1 -29 15 -11 8 10 9 16 1 21 -5 3 -13 -1 -16 -10z"/>
<path d="M2765 8261 c3 -6 -1 -13 -9 -18 -12 -7 -12 -10 0 -21 8 -7 14 -9 14
-5 0 4 5 1 10 -7 6 -9 10 -10 10 -3 0 6 -4 14 -9 17 -5 3 -7 15 -4 26 3 12 0
20 -6 20 -7 0 -10 -4 -6 -9z"/>
<path d="M2615 8200 c-3 -5 -1 -10 4 -10 6 0 11 5 11 10 0 6 -2 10 -4 10 -3 0
-8 -4 -11 -10z"/>
<path d="M2512 8068 c-14 -14 -16 -28 -3 -28 9 0 24 30 18 36 -2 2 -9 -2 -15
-8z"/>
<path d="M5890 7845 c0 -17 2 -18 24 -9 18 7 12 24 -10 24 -8 0 -14 -7 -14
-15z"/>
<path d="M2330 7022 c0 -22 5 -32 15 -32 19 0 19 19 0 44 -14 19 -15 18 -15
-12z"/>
<path d="M6350 5855 c0 -8 7 -15 15 -15 8 0 15 7 15 15 0 8 -7 15 -15 15 -8 0
-15 -7 -15 -15z"/>
<path d="M5412 5398 c7 -19 38 -22 38 -4 0 10 -9 16 -21 16 -12 0 -19 -5 -17
-12z"/>
<path d="M4950 5870 c0 -5 7 -10 15 -10 8 0 15 5 15 10 0 6 -7 10 -15 10 -8 0
-15 -4 -15 -10z"/>
<path d="M4985 4830 c3 -5 10 -10 16 -10 5 0 9 5 9 10 0 6 -7 10 -16 10 -8 0
-12 -4 -9 -10z"/>
<path d="M5938 2553 c-21 -9 -38 -22 -38 -29 0 -18 78 -28 120 -16 26 7 29 10
13 11 -17 1 -22 6 -20 23 3 29 -24 32 -75 11z"/>
<path d="M5120 2535 c-17 -10 -20 -14 -9 -15 9 0 22 7 29 15 15 18 12 18 -20
0z"/>
<path d="M6400 2535 c0 -9 9 -15 25 -15 16 0 25 6 25 15 0 9 -9 15 -25 15 -16
0 -25 -6 -25 -15z"/>
<path d="M6298 2533 c7 -3 16 -2 19 1 4 3 -2 6 -13 5 -11 0 -14 -3 -6 -6z"/>
<path d="M5105 2496 c-15 -11 -17 -18 -9 -26 8 -8 14 -9 18 -1 5 8 13 8 27 0
26 -13 37 -4 23 19 -15 23 -35 26 -59 8z"/>
<path d="M4501 2461 c-27 -17 -4 -41 39 -41 41 0 50 9 28 28 -21 16 -52 22
-67 13z"/>
<path d="M5680 2450 c0 -5 5 -10 11 -10 5 0 7 5 4 10 -3 6 -8 10 -11 10 -2 0
-4 -4 -4 -10z"/>
<path d="M5857 2422 c-20 -22 -13 -32 23 -32 34 0 55 21 38 38 -17 17 -42 15
-61 -6z"/>
<path d="M5720 2410 c0 -5 5 -10 11 -10 5 0 7 5 4 10 -3 6 -8 10 -11 10 -2 0
-4 -4 -4 -10z"/>
<path d="M6210 2348 c-30 -4 -77 -8 -105 -8 -57 0 -82 -11 -69 -31 5 -8 9 -18
9 -24 0 -5 23 -10 50 -11 28 0 55 -2 60 -4 18 -6 85 12 85 22 0 6 14 8 35 4
19 -4 35 -4 35 -1 0 13 -31 65 -38 64 -4 -1 -32 -6 -62 -11z"/>
<path d="M6388 2339 c-27 -15 -22 -29 10 -29 27 0 52 15 52 32 0 11 -42 9 -62
-3z"/>
<path d="M5325 2320 c-3 -5 -1 -10 4 -10 6 0 11 5 11 10 0 6 -2 10 -4 10 -3 0
-8 -4 -11 -10z"/>
<path d="M5390 2321 c0 -12 29 -23 41 -15 18 10 9 24 -16 24 -14 0 -25 -4 -25
-9z"/>
<path d="M5450 2306 c-6 -8 -26 -17 -43 -19 -18 -2 11 -5 63 -5 69 -2 91 1 83
9 -6 6 -23 12 -37 12 -15 0 -29 3 -32 8 -8 13 -20 11 -34 -5z"/>
<path d="M5570 2305 c0 -12 7 -15 25 -13 14 2 26 8 26 13 0 6 -12 11 -26 13
-18 2 -25 -1 -25 -13z"/>
<path d="M5800 2140 c-11 -7 -7 -10 18 -10 17 0 32 5 32 10 0 13 -30 13 -50 0z"/>
<path d="M6178 2113 c-37 -9 -16 -18 37 -15 30 2 55 8 55 13 0 9 -60 11 -92 2z"/>
<path d="M5878 2093 c7 -3 16 -2 19 1 4 3 -2 6 -13 5 -11 0 -14 -3 -6 -6z"/>
<path d="M9546 15235 c-13 -20 -14 -25 -2 -25 7 0 16 10 19 22 9 31 2 33 -17
3z"/>
<path d="M2278 15113 c7 -3 16 -2 19 1 4 3 -2 6 -13 5 -11 0 -14 -3 -6 -6z"/>
<path d="M2218 15103 c7 -3 16 -2 19 1 4 3 -2 6 -13 5 -11 0 -14 -3 -6 -6z"/>
<path d="M2158 15093 c7 -3 16 -2 19 1 4 3 -2 6 -13 5 -11 0 -14 -3 -6 -6z"/>
<path d="M9772 15088 c-16 -20 -5 -141 15 -155 26 -20 36 -15 19 9 -32 46 -16
78 38 78 24 0 46 17 46 35 0 6 -16 11 -35 11 -18 0 -43 8 -53 17 -15 14 -21
15 -30 5z"/>
<path d="M2098 15083 c6 -2 18 -2 25 0 6 3 1 5 -13 5 -14 0 -19 -2 -12 -5z"/>
<path d="M2020 15070 c-20 -6 -21 -8 -5 -8 11 0 31 4 45 8 20 6 21 8 5 8 -11
0 -31 -4 -45 -8z"/>
<path d="M1958 15053 c6 -2 18 -2 25 0 6 3 1 5 -13 5 -14 0 -19 -2 -12 -5z"/>
<path d="M1830 15030 c-109 -25 -163 -41 -158 -46 3 -2 65 11 139 30 138 35
152 47 19 16z"/>
<path d="M9345 14996 c17 -7 44 -16 60 -19 l30 -6 -30 13 c-16 7 -43 16 -60
19 l-30 6 30 -13z"/>
<path d="M717 14894 c-4 -4 -7 -14 -7 -23 0 -11 3 -12 11 -4 6 6 10 16 7 23
-2 6 -7 8 -11 4z"/>
<path d="M700 14808 c0 -25 3 -29 10 -18 13 20 13 50 0 50 -5 0 -10 -15 -10
-32z"/>
<path d="M959 14744 c-4 -66 -11 -102 -27 -134 -24 -48 -15 -78 14 -48 27 27
42 116 33 188 -13 95 -16 94 -20 -6z"/>
<path d="M9675 14820 c-9 -14 4 -52 16 -45 12 8 12 42 0 50 -5 3 -12 1 -16 -5z"/>
<path d="M10075 14738 c8 -39 19 -53 34 -44 19 12 12 43 -15 61 l-26 17 7 -34z"/>
<path d="M9600 14752 c0 -5 -9 -20 -20 -33 -26 -29 -23 -72 4 -78 35 -6 59 55
40 103 -6 17 -24 22 -24 8z"/>
<path d="M1420 14705 c0 -14 4 -25 9 -25 12 0 23 29 15 41 -10 18 -24 9 -24
-16z"/>
<path d="M1330 14657 c0 -32 16 -44 23 -17 3 10 -1 24 -9 31 -11 9 -14 7 -14
-14z"/>
<path d="M730 14625 c-29 -35 -18 -131 18 -143 9 -3 12 16 12 72 0 77 -8 97
-30 71z"/>
<path d="M1032 14508 c-6 -29 -12 -62 -15 -73 -2 -11 -7 -45 -11 -75 -7 -54
-6 -56 23 -73 24 -14 134 -57 146 -57 6 0 15 163 10 179 -3 11 -15 23 -26 26
-11 4 -24 17 -29 30 -5 13 -21 29 -37 37 -15 7 -33 24 -39 36 -11 22 -12 20
-22 -30z"/>
<path d="M1345 14510 c3 -5 8 -10 11 -10 2 0 4 5 4 10 0 6 -5 10 -11 10 -5 0
-7 -4 -4 -10z"/>
<path d="M9896 14502 c-4 -7 -22 -18 -39 -26 l-32 -13 2 -79 c0 -43 2 -82 2
-87 1 -4 36 11 80 32 75 38 78 41 72 68 -8 37 -32 73 -49 73 -7 0 -16 10 -21
22 -5 14 -10 18 -15 10z"/>
<path d="M9504 14455 c-8 -32 11 -58 26 -35 13 19 9 52 -7 57 -7 3 -15 -7 -19
-22z"/>
<path d="M9605 14415 c-16 -51 -17 -51 -25 -30 -7 18 -8 18 -15 -7 -8 -29 1
-68 16 -68 5 0 9 6 9 13 0 8 3 8 9 -2 8 -12 12 -12 25 -2 14 12 16 10 16 -15
1 -28 1 -28 16 -9 17 23 15 61 -4 58 -7 -2 -12 7 -12 21 0 48 -24 76 -35 41z"/>
<path d="M1410 14260 c0 -11 5 -20 10 -20 6 0 10 9 10 20 0 11 -4 20 -10 20
-5 0 -10 -9 -10 -20z"/>
<path d="M1450 14220 c0 -11 5 -20 10 -20 6 0 10 9 10 20 0 11 -4 20 -10 20
-5 0 -10 -9 -10 -20z"/>
<path d="M9531 14224 c0 -11 3 -14 6 -6 3 7 2 16 -1 19 -3 4 -6 -2 -5 -13z"/>
<path d="M9515 14171 c-3 -5 -1 -12 5 -16 5 -3 10 1 10 9 0 18 -6 21 -15 7z"/>
<path d="M9546 14141 c-4 -7 -5 -15 -2 -18 9 -9 19 4 14 18 -4 11 -6 11 -12 0z"/>
<path d="M1415 14130 c-4 -6 -3 -16 3 -22 13 -13 23 4 13 21 -7 10 -10 10 -16
1z"/>
<path d="M1610 14120 c0 -11 5 -20 10 -20 6 0 10 9 10 20 0 11 -4 20 -10 20
-5 0 -10 -9 -10 -20z"/>
<path d="M9200 13977 c1 -18 25 -47 40 -47 7 0 10 7 6 16 -4 9 -2 22 3 28 6 8
0 12 -20 13 -17 1 -29 -3 -29 -10z"/>
<path d="M9147 13955 c-4 -9 2 -19 13 -25 16 -8 20 -8 20 3 0 8 -6 20 -14 26
-10 9 -15 8 -19 -4z"/>
<path d="M1500 13940 c0 -11 5 -20 10 -20 6 0 10 9 10 20 0 11 -4 20 -10 20
-5 0 -10 -9 -10 -20z"/>
<path d="M9467 13943 c-11 -10 -8 -103 3 -103 16 0 31 51 25 82 -7 28 -15 34
-28 21z"/>
<path d="M1461 13894 c0 -11 3 -14 6 -6 3 7 2 16 -1 19 -3 4 -6 -2 -5 -13z"/>
<path d="M1481 13854 c0 -11 3 -14 6 -6 3 7 2 16 -1 19 -3 4 -6 -2 -5 -13z"/>
<path d="M1906 13774 c-4 -10 -1 -14 6 -12 15 5 23 28 10 28 -5 0 -13 -7 -16
-16z"/>
<path d="M1579 13763 c-7 -38 -5 -122 3 -117 5 3 7 13 4 21 -4 11 -2 13 9 9
17 -6 22 20 16 82 -1 13 -30 17 -32 5z"/>
<path d="M9290 13658 c0 -49 5 -47 13 5 3 20 2 37 -4 37 -5 0 -9 -19 -9 -42z"/>
<path d="M1599 13612 c-30 -4 -37 -21 -29 -72 7 -47 30 -45 52 3 22 47 13 73
-23 69z"/>
<path d="M9363 13525 c-7 -30 -8 -54 -3 -59 14 -14 22 15 18 65 l-3 44 -12
-50z"/>
<path d="M1392 13515 c0 -16 2 -22 5 -12 2 9 2 23 0 30 -3 6 -5 -1 -5 -18z"/>
<path d="M1732 13460 c-7 -11 -28 -28 -48 -37 -19 -10 -37 -27 -40 -39 -3 -13
-12 -25 -19 -28 -10 -4 -26 -101 -30 -180 0 -5 7 -13 16 -19 12 -8 21 -5 35 9
46 47 57 64 47 76 -31 39 -16 148 19 148 22 0 32 17 35 58 2 38 2 38 -15 12z"/>
<path d="M1462 13425 c0 -16 2 -22 5 -12 2 9 2 23 0 30 -3 6 -5 -1 -5 -18z"/>
<path d="M9582 13370 c0 -14 2 -19 5 -12 2 6 2 18 0 25 -3 6 -5 1 -5 -13z"/>
<path d="M1490 13330 c0 -18 4 -29 10 -25 6 3 10 15 10 25 0 10 -4 22 -10 25
-6 4 -10 -7 -10 -25z"/>
<path d="M9171 13314 c0 -11 3 -14 6 -6 3 7 2 16 -1 19 -3 4 -6 -2 -5 -13z"/>
<path d="M9220 13285 c0 -50 26 -125 44 -125 7 0 11 -31 11 -98 0 -53 3 -100
8 -103 16 -11 23 -73 13 -107 -11 -37 2 -59 28 -49 39 15 49 117 15 153 -14
15 -22 38 -23 64 -1 23 -7 45 -12 48 -5 4 -10 35 -11 68 -3 56 -9 80 -46 167
-17 40 -27 33 -27 -18z"/>
<path d="M1892 13293 c-16 -23 -29 -31 -48 -30 -24 2 -27 -3 -44 -68 -28 -106
-24 -335 6 -335 7 0 18 -9 24 -20 6 -11 14 -20 18 -20 15 0 33 88 33 151 -1
100 6 202 17 229 5 14 10 28 11 33 0 4 4 13 7 21 3 8 4 27 2 43 l-3 28 -23
-32z"/>
<path d="M9182 13169 c2 -7 10 -15 17 -17 8 -3 12 1 9 9 -2 7 -10 15 -17 17
-8 3 -12 -1 -9 -9z"/>
<path d="M1690 12996 c-11 -30 -6 -46 15 -46 7 0 16 -6 19 -12 3 -7 3 5 0 27
-7 53 -21 65 -34 31z"/>
<path d="M1600 12995 c0 -8 4 -15 10 -15 5 0 7 7 4 15 -4 8 -8 15 -10 15 -2 0
-4 -7 -4 -15z"/>
<path d="M1639 12943 c-4 -73 0 -133 9 -133 5 0 10 34 10 75 1 44 -2 75 -8 75
-6 0 -10 -8 -11 -17z"/>
<path d="M1635 12790 c3 -5 8 -10 11 -10 2 0 4 5 4 10 0 6 -5 10 -11 10 -5 0
-7 -4 -4 -10z"/>
<path d="M9337 12744 c-13 -13 -7 -71 8 -84 19 -16 28 4 23 51 -3 32 -17 46
-31 33z"/>
<path d="M1853 12729 c-17 -6 -23 -16 -23 -39 0 -18 5 -30 13 -30 22 0 44 33
38 56 -5 18 -10 20 -28 13z"/>
<path d="M1550 12638 c0 -30 15 -54 24 -40 8 14 -3 62 -15 62 -5 0 -9 -10 -9
-22z"/>
<path d="M1712 12240 c-9 -14 -10 -26 -3 -38 9 -16 10 -16 16 0 4 9 5 26 3 38
l-3 21 -13 -21z"/>
<path d="M2075 12143 c3 -27 6 -64 6 -83 -1 -30 1 -32 10 -16 6 10 9 36 6 57
-3 22 -1 41 4 44 10 7 -11 45 -25 45 -5 0 -5 -21 -1 -47z"/>
<path d="M2127 12184 c-4 -4 -7 -14 -7 -23 0 -11 3 -12 11 -4 6 6 10 16 7 23
-2 6 -7 8 -11 4z"/>
<path d="M2031 12104 c0 -11 3 -14 6 -6 3 7 2 16 -1 19 -3 4 -6 -2 -5 -13z"/>
<path d="M2017 12067 c-3 -8 1 -14 9 -14 8 0 14 6 14 14 0 7 -4 13 -9 13 -5 0
-11 -6 -14 -13z"/>
<path d="M9016 11995 c4 -8 8 -15 10 -15 2 0 4 7 4 15 0 8 -4 15 -10 15 -5 0
-7 -7 -4 -15z"/>
<path d="M2025 11969 c-4 -6 -5 -12 -2 -15 2 -3 7 2 10 11 7 17 1 20 -8 4z"/>
<path d="M1712 11850 c0 -14 2 -19 5 -12 2 6 2 18 0 25 -3 6 -5 1 -5 -13z"/>
<path d="M9020 11519 c7 -11 14 -18 17 -15 8 8 -5 36 -17 36 -7 0 -7 -6 0 -21z"/>
<path d="M8983 10866 c-16 -8 -23 -19 -23 -39 0 -16 4 -26 10 -22 6 3 10 11
10 17 0 6 7 20 17 30 20 22 15 27 -14 14z"/>
<path d="M8970 10606 c0 -9 7 -16 16 -16 17 0 14 22 -4 28 -7 2 -12 -3 -12
-12z"/>
<path d="M8970 10425 c0 -8 4 -15 10 -15 5 0 7 7 4 15 -4 8 -8 15 -10 15 -2 0
-4 -7 -4 -15z"/>
<path d="M1990 10409 c0 -27 29 -89 42 -89 10 0 5 23 -18 78 -15 37 -24 41
-24 11z"/>
<path d="M8968 10174 c-6 -22 17 -62 29 -51 3 4 0 22 -9 39 -13 28 -15 30 -20
12z"/>
<path d="M8936 10104 c-3 -9 -6 -38 -6 -64 0 -41 5 -54 27 -75 35 -31 49 -27
45 14 -3 30 -47 141 -56 141 -2 0 -7 -7 -10 -16z"/>
<path d="M8976 9911 c-7 -11 22 -36 32 -27 4 5 12 -9 19 -31 10 -34 12 -35 12
-10 2 48 -45 98 -63 68z"/>
<path d="M1984 9456 c-8 -22 0 -69 13 -73 7 -3 11 11 11 41 0 44 -13 61 -24
32z"/>
<path d="M8970 9131 c0 -17 5 -33 10 -36 15 -9 12 -61 -3 -77 -16 -16 -43 -89
-38 -103 7 -20 2 -48 -13 -64 -13 -15 -13 -23 0 -71 21 -73 40 -114 48 -102 3
6 9 31 13 57 5 36 3 45 -8 43 -20 -4 -20 103 0 110 10 3 12 0 7 -14 -5 -14 -4
-16 4 -8 7 7 13 51 15 100 2 49 6 100 10 114 8 32 -10 80 -30 80 -10 0 -15
-10 -15 -29z"/>
<path d="M8956 9084 c-9 -24 -7 -64 3 -64 19 0 29 64 12 74 -5 3 -12 -1 -15
-10z"/>
<path d="M2095 8978 c-8 -31 -1 -58 15 -58 11 0 12 23 0 60 l-7 25 -8 -27z"/>
<path d="M2101 8624 c0 -11 3 -14 6 -6 3 7 2 16 -1 19 -3 4 -6 -2 -5 -13z"/>
<path d="M8916 8494 c-26 -64 -32 -129 -13 -148 21 -21 27 -10 27 50 0 29 5
64 12 78 7 17 8 33 2 46 -8 18 -11 15 -28 -26z"/>
<path d="M2100 7816 c0 -27 16 -44 23 -24 5 18 -3 48 -14 48 -5 0 -9 -11 -9
-24z"/>
<path d="M2181 7724 c0 -11 3 -14 6 -6 3 7 2 16 -1 19 -3 4 -6 -2 -5 -13z"/>
<path d="M2150 7411 c0 -11 5 -23 10 -26 6 -4 10 5 10 19 0 14 -4 26 -10 26
-5 0 -10 -9 -10 -19z"/>
<path d="M2266 6822 c-11 -18 2 -68 14 -56 5 5 6 23 2 39 -6 20 -11 25 -16 17z"/>
<path d="M2248 6387 c-6 -30 9 -70 22 -62 18 11 9 85 -10 85 -4 0 -10 -11 -12
-23z"/>
<path d="M2370 5608 c0 -9 5 -20 10 -23 13 -8 13 5 0 25 -8 13 -10 13 -10 -2z"/>
<path d="M2387 5394 c-10 -11 -9 -52 3 -59 6 -3 13 1 16 10 8 19 -8 60 -19 49z"/>
<path d="M2451 4874 c0 -11 3 -14 6 -6 3 7 2 16 -1 19 -3 4 -6 -2 -5 -13z"/>
<path d="M2431 4594 c0 -11 3 -14 6 -6 3 7 2 16 -1 19 -3 4 -6 -2 -5 -13z"/>
<path d="M2477 4275 c-7 -18 1 -45 14 -45 5 0 6 12 3 28 -9 35 -10 36 -17 17z"/>
<path d="M2482 4020 c0 -14 2 -19 5 -12 2 6 2 18 0 25 -3 6 -5 1 -5 -13z"/>
<path d="M8440 3355 c0 -8 5 -15 10 -15 6 0 10 7 10 15 0 8 -4 15 -10 15 -5 0
-10 -7 -10 -15z"/>
<path d="M8132 2884 c-7 -8 -9 -14 -5 -14 4 0 1 -4 -7 -10 -8 -5 -11 -12 -7
-16 11 -11 40 21 35 39 -2 13 -5 13 -16 1z"/>
<path d="M6990 2340 c0 -5 9 -10 21 -10 11 0 17 5 14 10 -3 6 -13 10 -21 10
-8 0 -14 -4 -14 -10z"/>
<path d="M7125 2210 c-8 -13 15 -13 35 0 12 8 11 10 -7 10 -12 0 -25 -4 -28
-10z"/>
<path d="M6795 2010 c-3 -5 1 -10 9 -10 8 0 18 5 21 10 3 6 -1 10 -9 10 -8 0
-18 -4 -21 -10z"/>
<path d="M4889 1842 c-41 -2 -62 -8 -75 -23 -12 -13 -14 -23 -7 -30 5 -5 89
-12 189 -15 l179 -5 28 35 27 34 -35 6 c-19 4 -43 2 -54 -4 -22 -11 -84 -14
-94 -3 -8 7 -73 10 -158 5z"/>
<path d="M5753 1833 c-6 -15 -41 -28 -70 -24 -12 1 -31 -2 -42 -8 -14 -8 -29
-7 -57 5 -23 10 -51 14 -73 10 -72 -12 -131 -11 -131 1 0 20 -17 24 -33 9 -11
-11 -17 -12 -26 -3 -9 9 -14 8 -21 -3 -7 -10 -10 -11 -10 -2 0 22 -18 13 -33
-17 -8 -17 -13 -31 -12 -33 2 -2 134 -3 294 -2 257 0 293 2 309 17 23 21 85
22 103 1 10 -12 28 -14 93 -10 45 2 86 5 93 5 6 1 11 14 11 31 l-1 30 -76 0
c-42 0 -129 2 -195 3 -86 2 -120 -1 -123 -10z"/>
<path d="M6195 1826 c-18 -13 -17 -14 11 -19 30 -6 157 -11 209 -7 l30 2 -30
9 c-16 5 -38 6 -49 3 -11 -4 -16 -2 -12 4 14 23 -129 30 -159 8z"/>
<path d="M4706 1801 c-3 -5 0 -11 7 -13 17 -7 38 2 31 13 -7 12 -31 12 -38 0z"/>
</g>
</svg>
