<?xml version="1.0" standalone="no"?>
<!DOCTYPE svg PUBLIC "-//W3C//DTD SVG 20010904//EN"
 "http://www.w3.org/TR/2001/REC-SVG-20010904/DTD/svg10.dtd">
<svg version="1.0" xmlns="http://www.w3.org/2000/svg"
 width="1080.000000pt" height="1920.000000pt" viewBox="0 0 1080.000000 1920.000000"
 preserveAspectRatio="xMidYMid meet">

<g transform="translate(0.000000,1920.000000) scale(0.100000,-0.100000)"
fill="#000000" stroke="none">
<path d="M1510 16283 c-131 -68 -197 -145 -226 -268 -15 -67 -19 -175 -5 -175
5 0 28 7 52 16 24 8 84 24 134 35 60 13 93 25 99 37 6 9 11 62 13 117 2 55 10
120 18 145 8 25 17 64 21 88 6 38 4 42 -14 42 -11 0 -52 -17 -92 -37z"/>
<path d="M9478 16178 c-2 -6 -1 -34 3 -62 4 -28 8 -86 8 -128 1 -68 4 -79 23
-92 12 -9 33 -16 47 -16 24 0 24 0 18 83 -8 93 -19 134 -54 190 -24 38 -38 46
-45 25z"/>
<path d="M1205 15759 c-137 -64 -189 -100 -214 -153 -24 -52 -40 -139 -35
-188 4 -32 1 -38 -26 -49 -37 -17 -44 -35 -25 -62 30 -42 7 -267 -31 -298 -16
-13 -19 -39 -4 -39 17 0 39 44 55 112 19 82 34 253 23 271 -4 9 -2 14 7 14 8
0 12 -4 10 -8 -3 -4 2 -10 10 -13 9 -3 25 -27 36 -53 18 -41 20 -61 15 -138
-3 -49 -8 -99 -10 -110 -2 -12 -7 -48 -11 -80 -4 -33 -11 -70 -16 -82 -5 -13
-7 -23 -6 -23 2 0 58 20 125 45 67 25 128 45 135 45 8 0 26 9 40 20 21 17 27
32 33 88 4 37 7 70 6 75 -1 4 4 42 11 85 7 42 12 95 12 117 -1 22 -3 55 -4 73
0 20 -10 42 -25 57 -22 22 -24 30 -20 97 5 87 23 199 35 214 6 7 4 16 -4 22
-9 8 -41 -2 -122 -39z m52 -288 c44 -58 7 -294 -55 -349 -19 -17 -33 -21 -54
-17 -17 4 -28 2 -28 -4 0 -6 -11 -11 -24 -11 -44 0 -42 43 10 255 18 72 31
105 47 118 46 38 79 40 104 8z"/>
<path d="M2727 15698 c-13 -56 -18 -137 -9 -153 7 -13 11 8 14 76 5 98 4 115
-5 77z"/>
<path d="M9755 15678 c27 -131 32 -147 64 -187 l35 -44 32 36 c29 31 32 39 24
67 -11 38 -58 99 -104 134 -47 35 -60 34 -51 -6z"/>
<path d="M8422 15575 c0 -16 2 -22 5 -12 2 9 2 23 0 30 -3 6 -5 -1 -5 -18z"/>
<path d="M2062 15565 c0 -16 2 -22 5 -12 2 9 2 23 0 30 -3 6 -5 -1 -5 -18z"/>
<path d="M1532 15553 c-37 -71 -60 -195 -53 -285 1 -18 27 -48 41 -48 14 0 21
32 9 46 -15 18 -13 134 4 224 16 78 15 95 -1 63z"/>
<path d="M2050 15469 c0 -30 5 -61 10 -69 8 -10 9 5 4 50 -8 82 -14 90 -14 19z"/>
<path d="M9546 15235 c-13 -20 -14 -25 -2 -25 7 0 16 10 19 22 9 31 2 33 -17
3z"/>
<path d="M9772 15088 c-16 -20 -5 -141 15 -155 26 -20 36 -15 19 9 -32 46 -16
78 38 78 24 0 46 17 46 35 0 6 -16 11 -35 11 -18 0 -43 8 -53 17 -15 14 -21
15 -30 5z"/>
<path d="M1738 15003 c7 -3 16 -2 19 1 4 3 -2 6 -13 5 -11 0 -14 -3 -6 -6z"/>
<path d="M1680 14990 c-18 -12 -2 -12 25 0 13 6 15 9 5 9 -8 0 -22 -4 -30 -9z"/>
<path d="M717 14894 c-4 -4 -7 -14 -7 -23 0 -11 3 -12 11 -4 6 6 10 16 7 23
-2 6 -7 8 -11 4z"/>
<path d="M1490 14881 c-85 -34 -138 -62 -160 -87 l-23 -24 23 -25 c15 -16 27
-21 34 -16 16 14 116 50 116 43 0 -4 -4 -13 -9 -20 -4 -7 -5 -30 -1 -51 5 -29
2 -43 -12 -61 -30 -37 -22 -110 12 -110 25 0 30 -10 35 -66 3 -26 9 -52 13
-58 5 -6 6 -22 2 -36 -3 -14 -1 -50 5 -81 8 -36 9 -63 3 -73 -5 -9 -6 -31 -2
-49 13 -54 13 -57 -2 -57 -19 0 -19 -69 0 -76 24 -9 49 -99 43 -153 -5 -44 11
-90 26 -74 11 10 8 51 -3 58 -15 9 -12 25 5 25 18 0 18 5 4 31 -5 11 -11 46
-13 79 -1 32 -8 65 -15 74 -8 10 -9 21 -3 33 25 48 19 131 -10 153 -4 3 -1 18
7 34 19 36 19 66 0 93 -14 20 -14 23 4 33 11 5 29 10 40 10 24 0 28 18 7 26
-8 3 -18 13 -22 22 -11 27 -21 111 -12 106 4 -3 8 5 8 18 0 13 3 40 6 61 6 33
4 37 -15 37 -12 0 -29 9 -38 19 -9 11 -20 18 -25 15 -15 -10 5 61 27 91 22 31
23 75 2 75 -7 -1 -32 -9 -57 -19z m37 -343 c-3 -8 -6 -5 -6 6 -1 11 2 17 5 13
3 -3 4 -12 1 -19z"/>
<path d="M9522 14865 c0 -16 2 -22 5 -12 2 9 2 23 0 30 -3 6 -5 -1 -5 -18z"/>
<path d="M9610 14841 c0 -5 5 -13 10 -16 6 -3 10 -17 10 -31 0 -13 5 -24 10
-24 19 0 11 59 -10 70 -12 7 -20 7 -20 1z"/>
<path d="M700 14808 c0 -25 3 -29 10 -18 13 20 13 50 0 50 -5 0 -10 -15 -10
-32z"/>
<path d="M959 14744 c-4 -66 -11 -102 -27 -134 -24 -48 -15 -78 14 -48 27 27
42 116 33 188 -13 95 -16 94 -20 -6z"/>
<path d="M9675 14820 c-9 -14 4 -52 16 -45 12 8 12 42 0 50 -5 3 -12 1 -16 -5z"/>
<path d="M1655 14770 c-3 -5 -1 -10 4 -10 6 0 11 5 11 10 0 6 -2 10 -4 10 -3
0 -8 -4 -11 -10z"/>
<path d="M10075 14738 c8 -39 19 -53 34 -44 19 12 12 43 -15 61 l-26 17 7 -34z"/>
<path d="M9596 14734 c-9 -25 -7 -72 4 -79 15 -9 33 40 26 69 -7 29 -21 34
-30 10z"/>
<path d="M1420 14705 c0 -14 4 -25 9 -25 12 0 19 21 13 38 -8 21 -22 13 -22
-13z"/>
<path d="M1330 14657 c0 -32 16 -44 23 -17 3 10 -1 24 -9 31 -11 9 -14 7 -14
-14z"/>
<path d="M730 14625 c-29 -35 -18 -131 18 -143 9 -3 12 16 12 72 0 77 -8 97
-30 71z"/>
<path d="M1032 14508 c-6 -29 -12 -62 -15 -73 -2 -11 -7 -45 -11 -75 -7 -54
-6 -56 23 -73 24 -14 134 -57 146 -57 6 0 15 163 10 179 -3 11 -15 23 -26 26
-11 4 -24 17 -29 30 -5 13 -21 29 -37 37 -15 7 -33 24 -39 36 -11 22 -12 20
-22 -30z"/>
<path d="M1345 14510 c3 -5 8 -10 11 -10 2 0 4 5 4 10 0 6 -5 10 -11 10 -5 0
-7 -4 -4 -10z"/>
<path d="M9896 14502 c-4 -7 -22 -18 -39 -26 l-32 -13 2 -79 c0 -43 2 -82 2
-87 1 -4 36 11 80 32 75 38 78 41 72 68 -8 37 -32 73 -49 73 -7 0 -16 10 -21
22 -5 14 -10 18 -15 10z"/>
<path d="M1467 14487 c-3 -7 -1 -20 3 -28 7 -11 10 -10 16 4 4 10 2 23 -3 28
-7 7 -12 6 -16 -4z"/>
<path d="M9605 14415 c-3 -8 -7 -22 -10 -31 -3 -8 -9 -12 -15 -9 -6 4 -10 -7
-10 -27 0 -23 3 -29 9 -19 7 11 11 10 19 -5 8 -15 13 -16 25 -5 13 10 16 8 19
-16 l4 -28 13 27 c16 31 7 73 -9 48 -7 -11 -10 -7 -10 17 0 54 -23 86 -35 48z"/>
<path d="M1410 14261 c0 -12 5 -21 10 -21 6 0 10 6 10 14 0 8 -4 18 -10 21 -5
3 -10 -3 -10 -14z"/>
<path d="M1450 14219 c0 -11 5 -17 10 -14 6 3 10 13 10 21 0 8 -4 14 -10 14
-5 0 -10 -9 -10 -21z"/>
<path d="M9521 14164 c0 -11 3 -14 6 -6 3 7 2 16 -1 19 -3 4 -6 -2 -5 -13z"/>
<path d="M1414 14129 c-3 -6 -1 -16 5 -22 8 -8 11 -5 11 11 0 24 -5 28 -16 11z"/>
<path d="M9545 14130 c-3 -5 -1 -10 4 -10 6 0 11 5 11 10 0 6 -2 10 -4 10 -3
0 -8 -4 -11 -10z"/>
<path d="M1500 13940 c0 -19 3 -21 12 -12 9 9 9 15 0 24 -9 9 -12 7 -12 -12z"/>
<path d="M9478 13934 c-5 -4 -8 -25 -8 -48 0 -28 3 -37 11 -29 6 6 9 27 7 48
-2 20 -6 33 -10 29z"/>
<path d="M1461 13894 c0 -11 3 -14 6 -6 3 7 2 16 -1 19 -3 4 -6 -2 -5 -13z"/>
<path d="M1620 13830 c0 -5 5 -10 11 -10 5 0 7 5 4 10 -3 6 -8 10 -11 10 -2 0
-4 -4 -4 -10z"/>
<path d="M1576 13745 c-10 -39 24 -89 36 -52 7 19 -6 70 -18 74 -7 2 -15 -8
-18 -22z"/>
<path d="M1392 13515 c0 -16 2 -22 5 -12 2 9 2 23 0 30 -3 6 -5 -1 -5 -18z"/>
<path d="M1462 13425 c0 -16 2 -22 5 -12 2 9 2 23 0 30 -3 6 -5 -1 -5 -18z"/>
<path d="M9582 13370 c0 -14 2 -19 5 -12 2 6 2 18 0 25 -3 6 -5 1 -5 -13z"/>
<path d="M1491 13331 c-1 -27 2 -32 11 -23 8 8 8 17 0 34 -10 22 -11 21 -11
-11z"/>
<path d="M1621 13327 c-19 -19 -12 -37 14 -37 18 0 25 5 25 19 0 23 -23 34
-39 18z"/>
<path d="M1627 13262 c-18 -20 -24 -97 -8 -106 5 -3 16 5 24 18 12 17 13 26 4
35 -8 8 -5 11 11 11 22 0 27 14 16 44 -8 21 -27 20 -47 -2z m28 -12 c3 -5 2
-10 -4 -10 -5 0 -13 5 -16 10 -3 6 -2 10 4 10 5 0 13 -4 16 -10z"/>
<path d="M1550 12638 c0 -13 5 -30 10 -38 7 -11 10 -5 10 23 0 20 -4 37 -10
37 -5 0 -10 -10 -10 -22z"/>
<path d="M1711 11844 c0 -11 3 -14 6 -6 3 7 2 16 -1 19 -3 4 -6 -2 -5 -13z"/>
<path d="M5260 10060 c-28 -7 -30 -14 -10 -52 16 -34 30 -35 60 -4 36 40 9 71
-50 56z"/>
<path d="M3983 10053 c32 -2 81 -2 110 0 29 2 3 3 -58 3 -60 0 -84 -1 -52 -3z"/>
<path d="M4413 10053 c59 -2 154 -2 210 0 56 1 8 3 -108 3 -115 0 -161 -2
-102 -3z"/>
<path d="M3336 10041 c-27 -3 -51 -11 -53 -18 -5 -13 57 -8 92 8 11 5 76 10
145 12 l125 3 -130 0 c-71 1 -152 -2 -179 -5z"/>
<path d="M4255 10040 l-40 -7 37 -2 c20 0 40 4 43 9 3 6 5 9 3 9 -2 -1 -21 -5
-43 -9z"/>
<path d="M7438 10033 c12 -2 30 -2 40 0 9 3 -1 5 -23 4 -22 0 -30 -2 -17 -4z"/>
<path d="M7608 10033 c39 -2 105 -2 145 0 39 1 7 3 -73 3 -80 0 -112 -2 -72
-3z"/>
<path d="M7055 10019 c-4 -6 -4 -13 -1 -16 3 -4 6 -1 6 5 0 6 8 13 18 15 15 4
15 5 0 6 -9 0 -20 -4 -23 -10z"/>
<path d="M7928 10023 c6 -2 18 -2 25 0 6 3 1 5 -13 5 -14 0 -19 -2 -12 -5z"/>
<path d="M4211 10004 c0 -11 3 -14 6 -6 3 7 2 16 -1 19 -3 4 -6 -2 -5 -13z"/>
<path d="M3287 9983 c-5 -9 -77 -324 -77 -338 0 -5 4 -5 9 1 5 5 17 44 25 86
9 43 25 117 36 164 18 78 21 110 7 87z"/>
<path d="M4196 9944 c-4 -20 -5 -38 -3 -40 3 -3 8 11 11 32 4 20 5 38 3 40 -3
3 -8 -11 -11 -32z"/>
<path d="M7041 9964 c0 -11 3 -14 6 -6 3 7 2 16 -1 19 -3 4 -6 -2 -5 -13z"/>
<path d="M7951 9934 c0 -11 3 -14 6 -6 3 7 2 16 -1 19 -3 4 -6 -2 -5 -13z"/>
<path d="M7026 9913 c-6 -14 -5 -15 5 -6 7 7 10 15 7 18 -3 3 -9 -2 -12 -12z"/>
<path d="M3070 9871 c0 -12 5 -21 10 -21 6 0 10 6 10 14 0 8 -4 18 -10 21 -5
3 -10 -3 -10 -14z"/>
<path d="M4181 9874 c0 -11 3 -14 6 -6 3 7 2 16 -1 19 -3 4 -6 -2 -5 -13z"/>
<path d="M4172 9830 c0 -14 2 -19 5 -12 2 6 2 18 0 25 -3 6 -5 1 -5 -13z"/>
<path d="M7005 9830 c-3 -5 -1 -10 4 -10 6 0 11 5 11 10 0 6 -2 10 -4 10 -3 0
-8 -4 -11 -10z"/>
<path d="M4161 9784 c0 -11 3 -14 6 -6 3 7 2 16 -1 19 -3 4 -6 -2 -5 -13z"/>
<path d="M4040 9757 c0 -13 -15 -17 -87 -20 l-88 -3 88 -2 c71 -2 89 1 94 13
3 9 3 19 -1 22 -3 4 -6 -1 -6 -10z"/>
<path d="M7911 9754 c0 -11 3 -14 6 -6 3 7 2 16 -1 19 -3 4 -6 -2 -5 -13z"/>
<path d="M4146 9724 c-4 -20 -5 -38 -3 -40 3 -3 8 11 11 32 4 20 5 38 3 40 -3
3 -8 -11 -11 -32z"/>
<path d="M6991 9749 c-1 -9 7 -23 17 -30 15 -12 16 -12 6 1 -6 8 -14 22 -17
30 -5 13 -6 12 -6 -1z"/>
<path d="M3758 9733 c6 -2 18 -2 25 0 6 3 1 5 -13 5 -14 0 -19 -2 -12 -5z"/>
<path d="M4593 9733 c9 -2 25 -2 35 0 9 3 1 5 -18 5 -19 0 -27 -2 -17 -5z"/>
<path d="M4658 9733 c7 -3 16 -2 19 1 4 3 -2 6 -13 5 -11 0 -14 -3 -6 -6z"/>
<path d="M7860 9725 c0 -12 -18 -15 -104 -15 -58 0 -107 -3 -109 -7 -3 -5 42
-8 100 -8 98 0 107 2 120 23 10 14 11 22 4 22 -6 0 -11 -7 -11 -15z"/>
<path d="M3637 9723 c-4 -3 -7 -15 -7 -25 0 -16 9 -18 108 -16 l107 2 -104 3
c-97 4 -103 5 -98 23 5 21 4 24 -6 13z"/>
<path d="M7242 9685 c0 -16 2 -22 5 -12 2 9 2 23 0 30 -3 6 -5 -1 -5 -18z"/>
<path d="M3913 9683 c26 -2 68 -2 95 0 26 2 4 3 -48 3 -52 0 -74 -1 -47 -3z"/>
<path d="M4126 9634 c-4 -20 -5 -38 -3 -40 3 -3 8 11 11 32 4 20 5 38 3 40 -3
3 -8 -11 -11 -32z"/>
<path d="M6824 9648 l-19 -23 23 19 c21 18 27 26 19 26 -2 0 -12 -10 -23 -22z"/>
<path d="M6746 9647 c10 -26 54 -48 54 -27 0 6 -5 10 -12 10 -6 0 -20 8 -30
17 -18 16 -18 16 -12 0z"/>
<path d="M7231 9634 c0 -11 3 -14 6 -6 3 7 2 16 -1 19 -3 4 -6 -2 -5 -13z"/>
<path d="M3189 9606 c-9 -18 -9 -30 -2 -37 7 -7 12 0 17 22 8 41 0 49 -15 15z"/>
<path d="M7222 9590 c0 -14 2 -19 5 -12 2 6 2 18 0 25 -3 6 -5 1 -5 -13z"/>
<path d="M4111 9564 c0 -11 3 -14 6 -6 3 7 2 16 -1 19 -3 4 -6 -2 -5 -13z"/>
<path d="M3187 9543 c-2 -4 -30 -126 -62 -270 -47 -215 -55 -265 -45 -278 10
-12 42 -15 176 -15 151 0 164 1 174 19 5 11 20 21 32 23 12 2 23 9 24 16 1 7
0 8 -3 2 -2 -5 -15 -10 -28 -10 -13 0 -28 -6 -32 -14 -9 -15 -94 -21 -250 -18
-72 2 -83 4 -83 20 0 9 25 131 56 270 48 222 59 286 41 255z"/>
<path d="M4091 9481 c-7 -35 -15 -70 -17 -80 -5 -13 -4 -14 4 -1 13 21 35 117
30 132 -3 7 -10 -16 -17 -51z"/>
<path d="M6226 9445 c4 -8 11 -15 16 -15 6 0 5 6 -2 15 -7 8 -14 15 -16 15 -2
0 -1 -7 2 -15z"/>
<path d="M7171 9364 c0 -11 3 -14 6 -6 3 7 2 16 -1 19 -3 4 -6 -2 -5 -13z"/>
<path d="M2780 9359 c0 -5 5 -7 10 -4 6 3 10 8 10 11 0 2 -4 4 -10 4 -5 0 -10
-5 -10 -11z"/>
<path d="M3553 9355 c-3 -9 -3 -19 1 -22 3 -4 6 1 6 10 0 15 22 17 193 20
l192 2 -193 3 c-166 2 -193 0 -199 -13z"/>
<path d="M4051 9299 c-7 -33 -10 -63 -8 -65 2 -3 10 23 16 57 7 33 10 63 8 65
-2 3 -10 -23 -16 -57z"/>
<path d="M7152 9270 c0 -14 2 -19 5 -12 2 6 2 18 0 25 -3 6 -5 1 -5 -13z"/>
<path d="M3531 9254 c0 -11 3 -14 6 -6 3 7 2 16 -1 19 -3 4 -6 -2 -5 -13z"/>
<path d="M4502 9250 c0 -14 2 -19 5 -12 2 6 2 18 0 25 -3 6 -5 1 -5 -13z"/>
<path d="M3521 9214 c0 -11 3 -14 6 -6 3 7 2 16 -1 19 -3 4 -6 -2 -5 -13z"/>
<path d="M4021 9164 c-7 -30 -11 -57 -8 -60 2 -2 9 21 16 52 7 30 11 57 8 60
-2 2 -9 -21 -16 -52z"/>
<path d="M5950 9200 c-6 -11 -7 -20 -2 -20 6 0 12 9 15 20 3 11 3 20 1 20 -2
0 -8 -9 -14 -20z"/>
<path d="M7131 9184 c0 -11 3 -14 6 -6 3 7 2 16 -1 19 -3 4 -6 -2 -5 -13z"/>
<path d="M4522 9150 c0 -14 2 -19 5 -12 2 6 2 18 0 25 -3 6 -5 1 -5 -13z"/>
<path d="M5960 9167 c0 -2 15 -16 33 -33 l32 -29 -29 33 c-28 30 -36 37 -36
29z"/>
<path d="M3501 9124 c0 -11 3 -14 6 -6 3 7 2 16 -1 19 -3 4 -6 -2 -5 -13z"/>
<path d="M3996 9059 c-8 -43 -8 -46 10 -63 17 -18 76 -20 237 -9 86 5 99 9
108 27 9 19 9 20 -4 3 -13 -16 -32 -17 -178 -15 l-164 3 3 43 c3 49 -3 55 -12
11z"/>
<path d="M4541 9054 c0 -11 3 -14 6 -6 3 7 2 16 -1 19 -3 4 -6 -2 -5 -13z"/>
<path d="M7101 9044 c0 -11 3 -14 6 -6 3 7 2 16 -1 19 -3 4 -6 -2 -5 -13z"/>
<path d="M4553 9010 c3 -12 26 -15 128 -16 l124 0 -120 3 c-79 3 -122 8 -128
16 -6 9 -7 8 -4 -3z"/>
<path d="M7440 9000 c-10 -18 -22 -20 -128 -22 l-117 -2 105 -4 c117 -3 150 2
150 22 0 8 8 17 18 19 16 4 16 5 0 6 -10 0 -22 -8 -28 -19z"/>
<path d="M5345 9000 c-8 -13 15 -24 27 -12 6 6 4 11 -6 15 -8 3 -18 2 -21 -3z"/>
<path d="M7107 8989 c7 -7 15 -10 18 -7 3 3 -2 9 -12 12 -14 6 -15 5 -6 -5z"/>
<path d="M6448 8963 c18 -2 45 -2 60 0 15 2 0 4 -33 4 -33 0 -45 -2 -27 -4z"/>
<path d="M5600 8780 c0 -5 7 -10 15 -10 8 0 15 5 15 10 0 6 -7 10 -15 10 -8 0
-15 -4 -15 -10z"/>
<path d="M2510 8485 c-7 -9 -10 -18 -7 -21 3 -3 10 4 17 15 13 25 8 27 -10 6z"/>
<path d="M2502 8418 c3 -7 13 -15 22 -16 12 -3 17 1 14 10 -3 7 -13 15 -22 16
-12 3 -17 -1 -14 -10z"/>
<path d="M5577 8384 c-9 -10 2 -24 19 -24 8 0 14 7 14 15 0 15 -21 21 -33 9z"/>
<path d="M2564 8325 c-9 -22 1 -29 15 -11 8 10 9 16 1 21 -5 3 -13 -1 -16 -10z"/>
<path d="M2765 8261 c3 -6 -1 -13 -9 -18 -12 -7 -12 -10 0 -21 8 -7 14 -9 14
-5 0 4 5 1 10 -7 6 -9 10 -10 10 -3 0 6 -4 14 -9 17 -5 3 -7 15 -4 26 3 12 0
20 -6 20 -7 0 -10 -4 -6 -9z"/>
<path d="M2615 8200 c-3 -5 -1 -10 4 -10 6 0 11 5 11 10 0 6 -2 10 -4 10 -3 0
-8 -4 -11 -10z"/>
<path d="M2512 8068 c-14 -14 -16 -28 -3 -28 9 0 24 30 18 36 -2 2 -9 -2 -15
-8z"/>
<path d="M7405 2659 c-4 -6 -5 -13 -2 -16 7 -7 27 6 27 18 0 12 -17 12 -25 -2z"/>
<path d="M7510 2650 c0 -5 9 -10 20 -10 11 0 20 5 20 10 0 6 -9 10 -20 10 -11
0 -20 -4 -20 -10z"/>
<path d="M4134 2619 c-3 -5 2 -12 11 -15 9 -4 15 -15 13 -27 -2 -15 3 -23 16
-25 14 -3 17 0 13 11 -3 9 -1 18 6 20 9 3 9 8 -1 19 -16 19 -50 29 -58 17z"/>
<path d="M7290 2610 c0 -5 5 -10 11 -10 5 0 7 5 4 10 -3 6 -8 10 -11 10 -2 0
-4 -4 -4 -10z"/>
<path d="M7338 2613 c7 -3 16 -2 19 1 4 3 -2 6 -13 5 -11 0 -14 -3 -6 -6z"/>
<path d="M3733 2603 c-28 -5 -28 -3 -2 -56 34 -69 103 -101 115 -53 8 33 1 71
-13 69 -7 -2 -10 4 -7 11 10 27 -35 40 -93 29z m76 -49 c14 -12 -19 -1 -35 12
-18 14 -18 14 6 3 14 -6 27 -13 29 -15z"/>
<path d="M3955 2581 c-11 -5 -29 -18 -39 -30 -16 -17 -17 -27 -9 -53 l9 -33
77 2 77 3 0 -29 c0 -23 5 -30 25 -33 25 -5 62 22 49 35 -4 4 -1 13 6 22 10 12
8 16 -13 24 -14 5 -41 13 -61 16 -20 4 -39 11 -42 16 -3 5 -16 9 -30 9 -26 0
-33 27 -12 48 14 14 -5 16 -37 3z"/>
<path d="M7468 2582 c-16 -2 -28 -8 -28 -13 0 -5 -15 -9 -33 -9 -18 0 -37 -4
-42 -9 -6 -5 -38 -12 -72 -15 -69 -5 -112 -26 -91 -43 19 -15 118 -34 131 -26
7 4 21 9 31 10 11 2 25 8 31 13 7 6 20 8 28 4 18 -6 107 24 107 36 0 4 12 11
26 14 52 13 -25 46 -88 38z"/>
<path d="M6980 2538 c-25 -12 -48 -26 -51 -31 -4 -5 -17 -14 -30 -21 -27 -13
-38 -46 -16 -46 9 0 18 -13 22 -30 7 -30 15 -37 29 -23 4 4 23 8 42 9 43 1 53
10 29 28 -18 13 -17 14 13 30 37 19 38 22 16 43 -9 9 -14 26 -11 40 2 12 4 23
3 23 0 -1 -21 -11 -46 -22z"/>
<path d="M6772 2497 c-13 -14 -19 -30 -16 -43 4 -15 -1 -24 -18 -31 -22 -11
-22 -12 10 -12 30 -1 32 1 32 32 0 31 1 32 42 32 24 0 43 5 45 13 3 7 -5 12
-21 12 -13 0 -28 5 -31 10 -9 15 -19 12 -43 -13z"/>
<path d="M7105 2509 c-4 -6 -5 -13 -1 -16 8 -8 56 6 56 17 0 13 -47 13 -55 -1z"/>
<path d="M4175 2461 c3 -11 1 -22 -5 -26 -24 -15 -3 -36 52 -49 22 -5 26 -3
22 9 -4 8 -13 15 -21 15 -12 0 -14 8 -10 35 5 32 4 35 -19 35 -20 0 -24 -4
-19 -19z"/>
<path d="M4225 2450 c3 -5 11 -10 16 -10 6 0 7 5 4 10 -3 6 -11 10 -16 10 -6
0 -7 -4 -4 -10z"/>
<path d="M4281 2447 c8 -7 18 -19 21 -28 7 -19 41 -30 58 -19 20 13 -33 60
-67 60 -24 -1 -26 -2 -12 -13z"/>
<path d="M4494 2449 c-11 -18 13 -34 31 -19 8 7 15 16 15 21 0 13 -38 11 -46
-2z"/>
<path d="M5857 2423 c-19 -18 -6 -34 25 -31 44 4 53 38 10 38 -16 0 -32 -3
-35 -7z"/>
<path d="M6675 2270 c-16 -7 -17 -9 -3 -9 9 -1 20 4 23 9 7 11 7 11 -20 0z"/>
<path d="M6700 2213 c-8 -3 -18 -11 -22 -17 -8 -13 -113 -15 -143 -3 -16 7
-17 6 -4 -2 9 -6 16 -24 17 -40 1 -26 -4 -31 -31 -37 -18 -3 -36 -10 -42 -14
-5 -5 -23 -10 -39 -12 -16 -1 -31 -8 -33 -14 -2 -7 24 -14 72 -18 77 -7 110
-2 187 31 37 16 38 15 63 -9 17 -17 23 -31 18 -43 -5 -15 -3 -17 18 -11 13 4
35 10 49 13 23 5 66 40 59 48 -2 1 -26 0 -52 -5 -55 -8 -68 1 -35 25 22 16 21
16 -29 12 -48 -4 -51 -3 -40 13 8 14 8 22 -2 33 -10 13 -9 18 9 27 32 17 15
36 -20 23z"/>
<path d="M4430 2200 c0 -5 15 -10 33 -9 27 0 29 2 12 9 -28 12 -45 12 -45 0z"/>
<path d="M6475 2180 c-19 -8 -19 -9 3 -9 12 -1 22 4 22 9 0 6 -1 10 -2 9 -2 0
-12 -4 -23 -9z"/>
<path d="M4277 2123 c43 -41 112 -49 136 -17 16 21 15 21 -36 28 -29 3 -70 9
-92 13 l-40 6 32 -30z"/>
<path d="M4485 2140 c-18 -8 -17 -9 7 -9 15 -1 30 4 33 9 7 12 -12 12 -40 0z"/>
<path d="M4300 2070 c19 -13 30 -13 30 0 0 6 -10 10 -22 10 -19 0 -20 -2 -8
-10z"/>
<path d="M6685 2050 c4 -6 11 -8 16 -5 14 9 11 15 -7 15 -8 0 -12 -5 -9 -10z"/>
</g>
</svg>
